<svg id="图层_1" data-name="图层 1" xmlns="http://www.w3.org/2000/svg" viewBox="0 0 300 150"><defs><style>.cls-1,.cls-3,.cls-4,.cls-5,.cls-6{stroke:#000;stroke-linejoin:round;}.cls-1{stroke-width:7.11px;}.cls-2{fill:#fefe00;}.cls-3{fill:#e00;}.cls-3,.cls-4,.cls-5,.cls-6{stroke-width:1.42px;}.cls-4{fill:#0000f2;}.cls-5{fill:#ffa100;}.cls-6{fill:#00d800;}.cls-7{fill:#404040;}</style></defs><polygon class="cls-1" points="191.16 38 265.43 38 265.43 112.27 191.16 112.27 191.16 38"/><polygon class="cls-2" points="190.76 37.61 213.15 37.61 213.15 59.99 190.76 59.99 190.76 37.61"/><polygon class="cls-2" points="217.1 37.61 239.49 37.61 239.49 59.99 217.1 59.99 217.1 37.61"/><polygon class="cls-2" points="243.44 37.61 265.83 37.61 265.83 59.99 243.44 59.99 243.44 37.61"/><polygon class="cls-2" points="190.76 63.94 213.15 63.94 213.15 86.33 190.76 86.33 190.76 63.94"/><polygon class="cls-2" points="217.1 63.94 239.49 63.94 239.49 86.33 217.1 86.33 217.1 63.94"/><polygon class="cls-2" points="243.44 63.94 265.83 63.94 265.83 86.33 243.44 86.33 243.44 63.94"/><polygon class="cls-2" points="190.76 90.28 213.15 90.28 213.15 112.67 190.76 112.67 190.76 90.28"/><polygon class="cls-2" points="217.1 90.28 239.49 90.28 239.49 112.67 217.1 112.67 217.1 90.28"/><polygon class="cls-2" points="243.44 90.28 265.83 90.28 265.83 112.67 243.44 112.67 243.44 90.28"/><polygon class="cls-3" points="189.61 114.56 214.36 114.56 215.22 126.22 192.17 126.22 189.61 114.56"/><polygon class="cls-3" points="242.17 114.56 266.93 114.56 264.37 126.22 241.32 126.22 242.17 114.56"/><polygon class="cls-4" points="188.87 36.45 188.87 61.21 177.21 62.06 177.21 39.01 188.87 36.45"/><polygon class="cls-4" points="188.87 89.02 188.87 113.77 177.21 111.21 177.21 88.16 188.87 89.02"/><polygon class="cls-5" points="266.98 35.71 242.23 35.71 241.37 24.05 264.42 24.05 266.98 35.71"/><polygon class="cls-5" points="214.42 35.71 189.66 35.71 192.22 24.05 215.27 24.05 214.42 35.71"/><polygon class="cls-6" points="267.72 113.83 267.72 89.07 279.38 88.22 279.38 111.27 267.72 113.83"/><polygon class="cls-6" points="267.72 61.26 267.72 36.5 279.38 39.06 279.38 62.11 267.72 61.26"/><polygon id="_1" data-name="1" class="cls-1" points="30.53 38.02 104.8 38.02 104.8 112.29 30.53 112.29 30.53 38.02"/><polygon id="_1-2" data-name="1" class="cls-7" points="30.13 37.62 52.52 37.62 52.52 60.01 30.13 60.01 30.13 37.62"/><polygon id="_2" data-name="2" class="cls-2" points="56.47 37.62 78.86 37.62 78.86 60.01 56.47 60.01 56.47 37.62"/><polygon id="_3" data-name="3" class="cls-7" points="82.81 37.62 105.19 37.62 105.19 60.01 82.81 60.01 82.81 37.62"/><polygon id="_4" data-name="4" class="cls-2" points="30.13 63.96 52.52 63.96 52.52 86.35 30.13 86.35 30.13 63.96"/><polygon id="_5" data-name="5" class="cls-2" points="56.47 63.96 78.86 63.96 78.86 86.35 56.47 86.35 56.47 63.96"/><polygon id="_6" data-name="6" class="cls-2" points="82.81 63.96 105.19 63.96 105.19 86.35 82.81 86.35 82.81 63.96"/><polygon id="_7" data-name="7" class="cls-7" points="30.13 90.3 52.52 90.3 52.52 112.68 30.13 112.68 30.13 90.3"/><polygon id="_8" data-name="8" class="cls-2" points="56.47 90.3 78.86 90.3 78.86 112.68 56.47 112.68 56.47 90.3"/><polygon id="_9" data-name="9" class="cls-7" points="82.81 90.3 105.19 90.3 105.19 112.68 82.81 112.68 82.81 90.3"/><path d="M144.3,93.88,167.46,76a1.06,1.06,0,0,0,0-1.67L144.3,56.41a1.06,1.06,0,0,0-1.7.83v9.48H118.38a1,1,0,0,0-1,1V82.52a1,1,0,0,0,1,1H142.6v9.48a1.06,1.06,0,0,0,1.7.83Z"/></svg>