<svg id="图层_1" data-name="图层 1" xmlns="http://www.w3.org/2000/svg" viewBox="0 0 324 216"><defs><style>.cls-1,.cls-12,.cls-15,.cls-27,.cls-29,.cls-30,.cls-32,.cls-37,.cls-4,.cls-44{fill:none;}.cls-1,.cls-29,.cls-31,.cls-32,.cls-33,.cls-34,.cls-35,.cls-36,.cls-38,.cls-39,.cls-40,.cls-41,.cls-42,.cls-43,.cls-8{stroke:#000;}.cls-1,.cls-38,.cls-39,.cls-4,.cls-40,.cls-41,.cls-42,.cls-43,.cls-8{stroke-linejoin:round;}.cls-1,.cls-4{stroke-width:1.28px;}.cls-2{fill:#5cf;}.cls-3{fill:#3375b2;}.cls-4{stroke:red;}.cls-5{fill:#ff0;}.cls-6{fill:#850;}.cls-24,.cls-35,.cls-7{fill:#fefe00;}.cls-8{stroke-width:5.96px;}.cls-34,.cls-9{fill:#e00;}.cls-10,.cls-26,.cls-31,.cls-43{fill:#fff;}.cls-11,.cls-21,.cls-33{fill:#00d800;}.cls-12,.cls-27,.cls-30,.cls-37,.cls-44{stroke:#404040;}.cls-12,.cls-27,.cls-29,.cls-30,.cls-37,.cls-38,.cls-39,.cls-40,.cls-41,.cls-42,.cls-43,.cls-44{stroke-linecap:round;}.cls-12,.cls-44{stroke-miterlimit:284.44;}.cls-12{stroke-width:1.02px;}.cls-13{fill:#404040;}.cls-14,.cls-19,.cls-36{fill:#ffa100;}.cls-15,.cls-16,.cls-17,.cls-18,.cls-19,.cls-20,.cls-21,.cls-22,.cls-23,.cls-24,.cls-25,.cls-26{stroke:#040000;stroke-width:0.26px;}.cls-15,.cls-16,.cls-17,.cls-18,.cls-19,.cls-20,.cls-21,.cls-22,.cls-23,.cls-24,.cls-25,.cls-26,.cls-27,.cls-29,.cls-30,.cls-31,.cls-32,.cls-33,.cls-34,.cls-35,.cls-36,.cls-37{stroke-miterlimit:10;}.cls-16{fill:#211613;}.cls-17{fill:#1b1b1b;}.cls-17,.cls-19,.cls-20,.cls-21,.cls-23,.cls-24,.cls-25,.cls-26{fill-rule:evenodd;}.cls-18{fill:#060001;}.cls-20{fill:#006636;}.cls-22{fill:#040000;}.cls-23{fill:#add8e6;}.cls-25{fill:#a83dd9;}.cls-27{stroke-width:1.91px;}.cls-28{fill:#0000f2;}.cls-29{stroke-width:1.53px;}.cls-30{stroke-width:2.41px;}.cls-31,.cls-32,.cls-33,.cls-34,.cls-35,.cls-36{stroke-width:0.44px;}.cls-37{stroke-width:2.2px;}.cls-38,.cls-39,.cls-40,.cls-41,.cls-42,.cls-43{stroke-width:1.53px;}.cls-39{fill:red;}.cls-40{fill:lime;}.cls-41{fill:#f7931e;}.cls-42{fill:#1a1a1a;}.cls-44{stroke-width:1.63px;}</style></defs><circle class="cls-1" cx="239.48" cy="135.37" r="12.85"/><circle class="cls-1" cx="239.48" cy="186.75" r="12.85"/><circle class="cls-1" cx="290.86" cy="135.37" r="12.85"/><circle class="cls-1" cx="290.86" cy="186.75" r="12.85"/><circle class="cls-2" cx="265.17" cy="161.06" r="44.96"/><circle class="cls-1" cx="265.17" cy="161.06" r="44.96"/><circle class="cls-2" cx="239.48" cy="135.37" r="12.2"/><circle class="cls-2" cx="239.48" cy="186.75" r="12.2"/><circle class="cls-2" cx="290.86" cy="135.37" r="12.2"/><circle class="cls-2" cx="290.86" cy="186.75" r="12.2"/><circle class="cls-3" cx="239.48" cy="135.37" r="8.99"/><circle class="cls-3" cx="239.3" cy="130.03" r="0.64"/><path class="cls-3" d="M245.31,131.82a.63.63,0,0,1-.87.23.65.65,0,0,1,.64-1.12A.65.65,0,0,1,245.31,131.82Z"/><path class="cls-3" d="M249.07,136a.64.64,0,1,1,.24-.87A.64.64,0,0,1,249.07,136Z"/><circle class="cls-3" cx="250.4" cy="135.37" r="0.64"/><path class="cls-3" d="M248.61,141.38a.64.64,0,1,1,.88-.23A.63.63,0,0,1,248.61,141.38Z"/><path class="cls-3" d="M244.39,145.14a.64.64,0,1,1,1.1-.64.64.64,0,0,1-.23.88A.63.63,0,0,1,244.39,145.14Z"/><circle class="cls-3" cx="239.48" cy="146.29" r="0.64"/><path class="cls-3" d="M234.05,145.84a.64.64,0,1,1,.23.89A.64.64,0,0,1,234.05,145.84Z"/><path class="cls-3" d="M230.28,141.62a.64.64,0,0,1,.88.23.65.65,0,1,1-.88-.23Z"/><circle class="cls-3" cx="229.14" cy="136.72" r="0.64"/><path class="cls-3" d="M230.75,136.28a.64.64,0,1,1-.65,1.1.65.65,0,0,1-.24-.87A.65.65,0,0,1,230.75,136.28Z"/><path class="cls-3" d="M235,132.52a.64.64,0,1,1-.87-.24A.64.64,0,0,1,235,132.52Z"/><circle class="cls-3" cx="239.48" cy="161.06" r="8.99"/><circle class="cls-3" cx="239.48" cy="150.14" r="0.64"/><path class="cls-3" d="M245.49,151.93a.64.64,0,0,1-1.1-.64.64.64,0,1,1,1.1.64Z"/><path class="cls-3" d="M249.25,156.15a.62.62,0,0,1-.87-.23.64.64,0,1,1,.87.23Z"/><circle class="cls-3" cx="250.4" cy="161.06" r="0.64"/><path class="cls-3" d="M248.61,167.07a.64.64,0,1,1,.88-.23A.63.63,0,0,1,248.61,167.07Z"/><path class="cls-3" d="M244.39,170.83a.64.64,0,1,1,1.1-.64.64.64,0,0,1-.23.88A.63.63,0,0,1,244.39,170.83Z"/><circle class="cls-3" cx="239.48" cy="171.98" r="0.64"/><path class="cls-3" d="M234.05,171.54a.64.64,0,1,1,1.1.64.64.64,0,1,1-1.1-.64Z"/><path class="cls-3" d="M230.28,167.31a.64.64,0,0,1,.88.23.65.65,0,1,1-.88-.23Z"/><circle class="cls-3" cx="229.14" cy="162.41" r="0.64"/><path class="cls-3" d="M230.93,156.4a.63.63,0,0,1,.23.87.64.64,0,1,1-.23-.87Z"/><path class="cls-3" d="M235.15,152.63a.64.64,0,1,1-.87-.24A.64.64,0,0,1,235.15,152.63Z"/><circle class="cls-3" cx="239.48" cy="186.75" r="8.99"/><circle class="cls-3" cx="239.48" cy="175.83" r="0.64"/><path class="cls-3" d="M245.49,177.62a.64.64,0,0,1-1.1-.64.64.64,0,1,1,1.1.64Z"/><path class="cls-3" d="M249.25,181.84a.62.62,0,0,1-.87-.23.64.64,0,1,1,.87.23Z"/><circle class="cls-3" cx="250.4" cy="186.75" r="0.64"/><path class="cls-3" d="M248.61,192.76a.64.64,0,1,1,.88-.23A.63.63,0,0,1,248.61,192.76Z"/><path class="cls-3" d="M244.39,196.52a.64.64,0,1,1,1.1-.64.64.64,0,0,1-.23.88A.63.63,0,0,1,244.39,196.52Z"/><circle class="cls-3" cx="239.48" cy="197.67" r="0.64"/><path class="cls-3" d="M234.05,197.23a.64.64,0,1,1,1.1.64.64.64,0,1,1-1.1-.64Z"/><path class="cls-3" d="M230.28,193a.63.63,0,0,1,.88.22.65.65,0,0,1-1.12.65A.64.64,0,0,1,230.28,193Z"/><circle class="cls-3" cx="229.14" cy="188.1" r="0.64"/><path class="cls-3" d="M230.93,182.09a.63.63,0,0,1,.23.87.64.64,0,1,1-.23-.87Z"/><path class="cls-3" d="M235.15,178.32a.64.64,0,0,1-.23.88.63.63,0,0,1-.87-.23.64.64,0,1,1,1.1-.65Z"/><circle class="cls-3" cx="265.17" cy="135.37" r="8.99"/><circle class="cls-3" cx="264.99" cy="130.03" r="0.64"/><path class="cls-3" d="M271,131.82a.63.63,0,0,1-.87.23.65.65,0,0,1,.64-1.12A.65.65,0,0,1,271,131.82Z"/><path class="cls-3" d="M274.76,136a.64.64,0,1,1,.24-.87A.63.63,0,0,1,274.76,136Z"/><circle class="cls-3" cx="276.09" cy="135.37" r="0.64"/><path class="cls-3" d="M274.3,141.38a.64.64,0,1,1,.88-.23A.63.63,0,0,1,274.3,141.38Z"/><path class="cls-3" d="M270.08,145.14a.64.64,0,1,1,1.1-.64.64.64,0,0,1-.23.88A.63.63,0,0,1,270.08,145.14Z"/><circle class="cls-3" cx="265.17" cy="146.29" r="0.64"/><path class="cls-3" d="M259.16,144.5a.63.63,0,0,1,.87-.23.62.62,0,0,1,.23.87.63.63,0,0,1-.87.24A.64.64,0,0,1,259.16,144.5Z"/><path class="cls-3" d="M255.4,140.28a.64.64,0,1,1,.64,1.1.64.64,0,1,1-.64-1.1Z"/><circle class="cls-3" cx="254.25" cy="135.37" r="0.64"/><path class="cls-3" d="M255.86,134.94a.64.64,0,1,1-.88.23A.63.63,0,0,1,255.86,134.94Z"/><path class="cls-3" d="M260.08,131.17a.64.64,0,1,1-1.1.65.65.65,0,0,1,.23-.89A.65.65,0,0,1,260.08,131.17Z"/><circle class="cls-3" cx="265.17" cy="161.06" r="8.99"/><circle class="cls-3" cx="265.17" cy="150.14" r="0.64"/><path class="cls-3" d="M271.18,151.93a.64.64,0,0,1-1.1-.64.64.64,0,1,1,1.1.64Z"/><path class="cls-3" d="M274.94,156.15a.62.62,0,0,1-.87-.23.64.64,0,1,1,.87.23Z"/><circle class="cls-3" cx="276.09" cy="161.06" r="0.64"/><path class="cls-3" d="M274.3,167.07a.64.64,0,1,1,.88-.23A.63.63,0,0,1,274.3,167.07Z"/><path class="cls-3" d="M270.08,170.83a.64.64,0,1,1,1.1-.64.64.64,0,0,1-.23.88A.63.63,0,0,1,270.08,170.83Z"/><circle class="cls-3" cx="265.17" cy="171.98" r="0.64"/><path class="cls-3" d="M259.16,170.19A.63.63,0,0,1,260,170a.62.62,0,0,1,.23.87.63.63,0,0,1-.87.24A.64.64,0,0,1,259.16,170.19Z"/><path class="cls-3" d="M255.4,166a.64.64,0,1,1-.24.87A.64.64,0,0,1,255.4,166Z"/><circle class="cls-3" cx="254.25" cy="161.06" r="0.64"/><path class="cls-3" d="M256,155.05a.63.63,0,0,1,.23.87.62.62,0,0,1-.87.23.64.64,0,1,1,.64-1.1Z"/><path class="cls-3" d="M260.26,151.29a.64.64,0,1,1-1.1.64.64.64,0,1,1,1.1-.64Z"/><circle class="cls-3" cx="265.17" cy="186.75" r="8.99"/><circle class="cls-3" cx="265.17" cy="175.83" r="0.64"/><path class="cls-3" d="M271.18,177.62a.64.64,0,0,1-1.1-.64.64.64,0,1,1,1.1.64Z"/><path class="cls-3" d="M274.94,181.84a.62.62,0,0,1-.87-.23.64.64,0,1,1,.87.23Z"/><circle class="cls-3" cx="276.09" cy="186.75" r="0.64"/><path class="cls-3" d="M274.3,192.76a.64.64,0,1,1,.88-.23A.63.63,0,0,1,274.3,192.76Z"/><path class="cls-3" d="M270.08,196.52a.64.64,0,1,1,1.1-.64.64.64,0,0,1-.23.88A.63.63,0,0,1,270.08,196.52Z"/><circle class="cls-3" cx="265.17" cy="197.67" r="0.64"/><path class="cls-3" d="M259.16,195.88a.63.63,0,0,1,.87-.23.62.62,0,0,1,.23.87.63.63,0,0,1-.87.24A.64.64,0,0,1,259.16,195.88Z"/><path class="cls-3" d="M255.4,191.66a.64.64,0,1,1-.24.87A.64.64,0,0,1,255.4,191.66Z"/><circle class="cls-3" cx="254.25" cy="186.75" r="0.64"/><path class="cls-3" d="M256,180.74a.63.63,0,0,1,.23.87.62.62,0,0,1-.87.23.64.64,0,1,1,.64-1.1Z"/><path class="cls-3" d="M260.26,177a.64.64,0,1,1-1.1.64.64.64,0,1,1,1.1-.64Z"/><circle class="cls-3" cx="290.86" cy="135.37" r="8.99"/><circle class="cls-3" cx="290.68" cy="130.03" r="0.64"/><path class="cls-3" d="M296.69,131.82a.63.63,0,0,1-.87.23.65.65,0,0,1,.64-1.12A.65.65,0,0,1,296.69,131.82Z"/><path class="cls-3" d="M300.45,136a.64.64,0,1,1,.24-.87A.63.63,0,0,1,300.45,136Z"/><circle class="cls-3" cx="301.78" cy="135.37" r="0.64"/><path class="cls-3" d="M300,141.38a.64.64,0,1,1,.88-.23A.63.63,0,0,1,300,141.38Z"/><path class="cls-3" d="M295.77,145.14a.64.64,0,1,1,1.1-.64.64.64,0,0,1-.23.88A.63.63,0,0,1,295.77,145.14Z"/><circle class="cls-3" cx="290.86" cy="146.29" r="0.64"/><path class="cls-3" d="M284.85,144.5a.63.63,0,0,1,.87-.23.62.62,0,0,1,.23.87.63.63,0,0,1-.87.24A.64.64,0,0,1,284.85,144.5Z"/><path class="cls-3" d="M281.09,140.28a.64.64,0,0,1,.64,1.1.64.64,0,1,1-.64-1.1Z"/><circle class="cls-3" cx="279.94" cy="135.37" r="0.64"/><path class="cls-3" d="M281.55,134.94a.64.64,0,1,1-.88.23A.63.63,0,0,1,281.55,134.94Z"/><path class="cls-3" d="M285.77,131.17a.64.64,0,1,1-1.1.65.65.65,0,0,1,.23-.89A.65.65,0,0,1,285.77,131.17Z"/><circle class="cls-3" cx="290.86" cy="161.06" r="8.99"/><circle class="cls-3" cx="290.86" cy="150.14" r="0.64"/><path class="cls-3" d="M296.87,151.93a.64.64,0,0,1-1.1-.64.64.64,0,1,1,1.1.64Z"/><path class="cls-3" d="M300.63,156.15a.62.62,0,0,1-.87-.23.64.64,0,1,1,.87.23Z"/><circle class="cls-3" cx="301.78" cy="161.06" r="0.64"/><path class="cls-3" d="M300,167.07a.64.64,0,1,1,.88-.23A.63.63,0,0,1,300,167.07Z"/><path class="cls-3" d="M295.77,170.83a.64.64,0,1,1,1.1-.64.64.64,0,0,1-.23.88A.63.63,0,0,1,295.77,170.83Z"/><circle class="cls-3" cx="290.86" cy="171.98" r="0.64"/><path class="cls-3" d="M284.85,170.19a.63.63,0,0,1,.87-.23.62.62,0,0,1,.23.87.63.63,0,0,1-.87.24A.64.64,0,0,1,284.85,170.19Z"/><path class="cls-3" d="M281.09,166a.64.64,0,1,1-.24.87A.64.64,0,0,1,281.09,166Z"/><circle class="cls-3" cx="279.94" cy="161.06" r="0.64"/><path class="cls-3" d="M281.73,155.05a.63.63,0,0,1,.23.87.62.62,0,0,1-.87.23.64.64,0,1,1,.64-1.1Z"/><path class="cls-3" d="M286,151.29a.64.64,0,0,1-1.1.64.64.64,0,1,1,1.1-.64Z"/><circle class="cls-3" cx="290.86" cy="186.75" r="8.99"/><circle class="cls-3" cx="290.86" cy="175.83" r="0.64"/><path class="cls-3" d="M296.87,177.62a.64.64,0,0,1-1.1-.64.64.64,0,1,1,1.1.64Z"/><path class="cls-3" d="M300.63,181.84a.62.62,0,0,1-.87-.23.64.64,0,1,1,.87.23Z"/><circle class="cls-3" cx="301.78" cy="186.75" r="0.64"/><path class="cls-3" d="M300,192.76a.64.64,0,1,1,.88-.23A.63.63,0,0,1,300,192.76Z"/><path class="cls-3" d="M295.77,196.52a.64.64,0,1,1,1.1-.64.64.64,0,0,1-.23.88A.63.63,0,0,1,295.77,196.52Z"/><circle class="cls-3" cx="290.86" cy="197.67" r="0.64"/><path class="cls-3" d="M284.85,195.88a.63.63,0,0,1,.87-.23.62.62,0,0,1,.23.87.63.63,0,0,1-.87.24A.64.64,0,0,1,284.85,195.88Z"/><path class="cls-3" d="M281.09,191.66a.64.64,0,1,1-.24.87A.64.64,0,0,1,281.09,191.66Z"/><circle class="cls-3" cx="279.94" cy="186.75" r="0.64"/><path class="cls-3" d="M281.73,180.74a.63.63,0,0,1,.23.87.62.62,0,0,1-.87.23.64.64,0,1,1,.64-1.1Z"/><path class="cls-3" d="M286,177a.64.64,0,0,1-1.1.64A.64.64,0,1,1,286,177Z"/><circle class="cls-1" cx="239.48" cy="135.37" r="8.99"/><polygon points="239.48 135.37 240.74 135.12 239.48 128.95 238.22 135.12 239.48 135.37"/><polygon class="cls-4" points="239.48 135.37 240.74 135.12 239.48 128.95 238.22 135.12 239.48 135.37"/><circle cx="239.48" cy="135.37" r="1.28"/><circle class="cls-4" cx="239.48" cy="135.37" r="1.28"/><polygon class="cls-5" points="239.48 135.37 240.74 135.12 239.48 128.95 238.22 135.12 239.48 135.37"/><circle class="cls-5" cx="239.48" cy="135.37" r="1.28"/><circle class="cls-1" cx="265.17" cy="135.37" r="8.99"/><polygon points="265.17 135.37 266.39 135.78 268.38 129.81 264.2 134.52 265.17 135.37"/><polygon class="cls-4" points="265.17 135.37 266.39 135.78 268.38 129.81 264.2 134.52 265.17 135.37"/><circle cx="265.17" cy="135.37" r="1.28"/><circle class="cls-4" cx="265.17" cy="135.37" r="1.28"/><polygon class="cls-5" points="265.17 135.37 266.39 135.78 268.38 129.81 264.2 134.52 265.17 135.37"/><circle class="cls-5" cx="265.17" cy="135.37" r="1.28"/><circle class="cls-1" cx="290.86" cy="135.37" r="8.99"/><polygon points="290.86 135.37 292.08 135.78 294.07 129.81 289.89 134.52 290.86 135.37"/><polygon class="cls-4" points="290.86 135.37 292.08 135.78 294.07 129.81 289.89 134.52 290.86 135.37"/><circle cx="290.86" cy="135.37" r="1.28"/><circle class="cls-4" cx="290.86" cy="135.37" r="1.28"/><polygon class="cls-5" points="290.86 135.37 292.08 135.78 294.07 129.81 289.89 134.52 290.86 135.37"/><circle class="cls-5" cx="290.86" cy="135.37" r="1.28"/><circle class="cls-1" cx="239.48" cy="161.06" r="8.99"/><polygon points="239.48 161.06 240.73 160.8 239.48 154.64 238.22 160.81 239.48 161.06"/><polygon class="cls-4" points="239.48 161.06 240.73 160.8 239.48 154.64 238.22 160.81 239.48 161.06"/><path d="M240.76,161.06a1.28,1.28,0,1,1-1.28-1.28A1.28,1.28,0,0,1,240.76,161.06Z"/><path class="cls-4" d="M240.76,161.06a1.28,1.28,0,1,1-1.28-1.28A1.28,1.28,0,0,1,240.76,161.06Z"/><polygon class="cls-5" points="239.48 161.06 240.73 160.8 239.48 154.64 238.22 160.81 239.48 161.06"/><path class="cls-5" d="M240.76,161.06a1.28,1.28,0,1,1-1.28-1.28A1.28,1.28,0,0,1,240.76,161.06Z"/><circle class="cls-1" cx="265.17" cy="161.06" r="8.99"/><polygon points="265.17 161.06 266.39 161.46 268.38 155.5 264.21 160.21 265.17 161.06"/><polygon class="cls-4" points="265.17 161.06 266.39 161.46 268.38 155.5 264.21 160.21 265.17 161.06"/><path d="M266.28,161.7a1.28,1.28,0,1,1-.47-1.75A1.27,1.27,0,0,1,266.28,161.7Z"/><path class="cls-4" d="M266.28,161.7a1.28,1.28,0,1,1-.47-1.75A1.27,1.27,0,0,1,266.28,161.7Z"/><polygon class="cls-5" points="265.17 161.06 266.39 161.46 268.38 155.5 264.21 160.21 265.17 161.06"/><path class="cls-5" d="M266.28,161.7a1.28,1.28,0,1,1-.47-1.75A1.27,1.27,0,0,1,266.28,161.7Z"/><circle class="cls-1" cx="290.86" cy="161.06" r="8.99"/><polygon points="290.86 161.06 292.08 161.47 294.07 155.5 289.89 160.21 290.86 161.06"/><polygon class="cls-4" points="290.86 161.06 292.08 161.47 294.07 155.5 289.89 160.21 290.86 161.06"/><circle cx="290.86" cy="161.06" r="1.28"/><circle class="cls-4" cx="290.86" cy="161.06" r="1.28"/><polygon class="cls-5" points="290.86 161.06 292.08 161.47 294.07 155.5 289.89 160.21 290.86 161.06"/><circle class="cls-5" cx="290.86" cy="161.06" r="1.28"/><circle class="cls-1" cx="239.48" cy="186.75" r="8.99"/><polygon points="239.48 186.75 240.73 186.49 239.48 180.33 238.22 186.5 239.48 186.75"/><polygon class="cls-4" points="239.48 186.75 240.73 186.49 239.48 180.33 238.22 186.5 239.48 186.75"/><path d="M240.76,186.75a1.28,1.28,0,1,1-1.28-1.28A1.27,1.27,0,0,1,240.76,186.75Z"/><path class="cls-4" d="M240.76,186.75a1.28,1.28,0,1,1-1.28-1.28A1.27,1.27,0,0,1,240.76,186.75Z"/><polygon class="cls-5" points="239.48 186.75 240.73 186.49 239.48 180.33 238.22 186.5 239.48 186.75"/><path class="cls-5" d="M240.76,186.75a1.28,1.28,0,1,1-1.28-1.28A1.27,1.27,0,0,1,240.76,186.75Z"/><circle class="cls-1" cx="265.17" cy="186.75" r="8.99"/><polygon points="265.17 186.75 266.42 186.49 265.17 180.33 263.91 186.5 265.17 186.75"/><polygon class="cls-4" points="265.17 186.75 266.42 186.49 265.17 180.33 263.91 186.5 265.17 186.75"/><path d="M266.46,186.75a1.29,1.29,0,1,1-2.57,0,1.27,1.27,0,0,1,1.28-1.28A1.29,1.29,0,0,1,266.46,186.75Z"/><path class="cls-4" d="M266.46,186.75a1.29,1.29,0,1,1-2.57,0,1.27,1.27,0,0,1,1.28-1.28A1.29,1.29,0,0,1,266.46,186.75Z"/><polygon class="cls-5" points="265.17 186.75 266.42 186.49 265.17 180.33 263.91 186.5 265.17 186.75"/><path class="cls-5" d="M266.46,186.75a1.29,1.29,0,1,1-2.57,0,1.27,1.27,0,0,1,1.28-1.28A1.29,1.29,0,0,1,266.46,186.75Z"/><circle class="cls-1" cx="290.86" cy="186.75" r="8.99"/><polygon points="290.86 186.75 292.12 186.49 290.86 180.33 289.6 186.5 290.86 186.75"/><polygon class="cls-4" points="290.86 186.75 292.12 186.49 290.86 180.33 289.6 186.5 290.86 186.75"/><path d="M292.15,186.75a1.29,1.29,0,1,1-1.29-1.28A1.28,1.28,0,0,1,292.15,186.75Z"/><path class="cls-4" d="M292.15,186.75a1.29,1.29,0,1,1-1.29-1.28A1.28,1.28,0,0,1,292.15,186.75Z"/><polygon class="cls-5" points="290.86 186.75 292.12 186.49 290.86 180.33 289.6 186.5 290.86 186.75"/><path class="cls-5" d="M292.15,186.75a1.29,1.29,0,1,1-1.29-1.28A1.28,1.28,0,0,1,292.15,186.75Z"/><circle class="cls-6" cx="252.33" cy="148.22" r="2.57"/><circle class="cls-1" cx="252.33" cy="148.22" r="2.57"/><circle class="cls-7" cx="278.02" cy="148.22" r="2.57"/><circle class="cls-1" cx="278.02" cy="148.22" r="2.57"/><circle class="cls-6" cx="252.33" cy="173.91" r="2.57"/><circle class="cls-1" cx="252.33" cy="173.91" r="2.57"/><circle class="cls-6" cx="278.02" cy="173.91" r="2.57"/><circle class="cls-1" cx="278.02" cy="173.91" r="2.57"/><polygon class="cls-8" points="71.79 46.55 98.46 22.77 94.85 70.43 70.46 99.34 71.79 46.55"/><polygon class="cls-8" points="49.84 12.07 98.46 22.77 71.79 46.55 17.75 31.87 49.84 12.07"/><polygon class="cls-8" points="17.75 31.87 71.79 46.55 70.46 99.34 21.84 81.61 17.75 31.87"/><polygon class="cls-9" points="72.9 46.5 76.87 42.97 76.62 50.35 72.71 54.01 72.9 46.5"/><polygon class="cls-9" points="77.55 42.34 81.32 38.98 81.01 46.24 77.3 49.73 77.55 42.34"/><polygon class="cls-9" points="81.96 38.39 85.55 35.19 85.2 42.33 81.66 45.65 81.96 38.39"/><polygon class="cls-9" points="86.17 34.63 89.59 31.57 89.19 38.59 85.81 41.77 86.17 34.63"/><polygon class="cls-9" points="90.17 31.04 93.44 28.13 93 35.03 89.78 38.06 90.17 31.04"/><polygon class="cls-9" points="94 27.61 97.12 24.83 96.65 31.63 93.56 34.52 94 27.61"/><polygon class="cls-9" points="97.66 24.34 100.64 21.68 100.14 28.36 97.19 31.14 97.66 24.34"/><polygon class="cls-9" points="72.68 55.3 76.58 51.64 76.34 58.78 72.49 62.56 72.68 55.3"/><polygon class="cls-9" points="77.25 51 80.96 47.51 80.67 54.54 77.01 58.14 77.25 51"/><polygon class="cls-9" points="81.6 46.9 85.14 43.58 84.8 50.49 81.31 53.93 81.6 46.9"/><polygon class="cls-9" points="85.75 42.99 89.13 39.83 88.74 46.63 85.41 49.91 85.75 42.99"/><polygon class="cls-9" points="89.7 39.27 92.93 36.24 92.51 42.94 89.32 46.08 89.7 39.27"/><polygon class="cls-9" points="93.48 35.71 96.57 32.82 96.11 39.41 93.06 42.41 93.48 35.71"/><polygon class="cls-9" points="97.1 32.31 100.05 29.54 99.56 36.03 96.64 38.91 97.1 32.31"/><polygon class="cls-9" points="72.46 63.81 76.3 60.03 76.07 66.95 72.28 70.83 72.46 63.81"/><polygon class="cls-9" points="76.96 59.37 80.62 55.77 80.34 62.58 76.73 66.29 76.96 59.37"/><polygon class="cls-9" points="81.25 55.14 84.74 51.71 84.41 58.41 80.97 61.95 81.25 55.14"/><polygon class="cls-9" points="85.34 51.1 88.68 47.83 88.3 54.43 85.01 57.81 85.34 51.1"/><polygon class="cls-9" points="89.25 47.25 92.44 44.12 92.03 50.63 88.88 53.86 89.25 47.25"/><polygon class="cls-9" points="92.98 43.57 96.03 40.57 95.59 46.98 92.57 50.08 92.98 43.57"/><polygon class="cls-9" points="96.56 40.05 99.48 37.17 99 43.49 96.11 46.46 96.56 40.05"/><polygon class="cls-9" points="72.25 72.05 76.03 68.16 75.81 74.86 72.08 78.84 72.25 72.05"/><polygon class="cls-9" points="76.68 67.48 80.29 63.77 80.02 70.37 76.46 74.18 76.68 67.48"/><polygon class="cls-9" points="80.91 63.13 84.36 59.59 84.04 66.09 80.64 69.72 80.91 63.13"/><polygon class="cls-9" points="84.95 58.97 88.24 55.59 87.88 62 84.63 65.47 84.95 58.97"/><polygon class="cls-9" points="88.81 55 91.96 51.77 91.56 58.09 88.44 61.41 88.81 55"/><polygon class="cls-9" points="92.5 51.2 95.51 48.11 95.08 54.34 92.1 57.52 92.5 51.2"/><polygon class="cls-9" points="96.03 47.56 98.92 44.6 98.45 50.74 95.6 53.79 96.03 47.56"/><polygon class="cls-9" points="72.04 80.02 75.77 76.03 75.56 82.52 71.88 86.6 72.04 80.02"/><polygon class="cls-9" points="76.41 75.33 79.97 71.53 79.71 77.93 76.19 81.82 76.41 75.33"/><polygon class="cls-9" points="80.58 70.86 83.99 67.23 83.67 73.55 80.32 77.27 80.58 70.86"/><polygon class="cls-9" points="84.57 66.6 87.82 63.12 87.47 69.35 84.26 72.91 84.57 66.6"/><polygon class="cls-9" points="88.38 62.52 91.49 59.19 91.1 65.33 88.03 68.74 88.38 62.52"/><polygon class="cls-9" points="92.03 58.61 95 55.43 94.58 61.49 91.64 64.75 92.03 58.61"/><polygon class="cls-9" points="95.52 54.87 98.38 51.82 97.92 57.8 95.1 60.93 95.52 54.87"/><polygon class="cls-9" points="71.84 87.73 75.52 83.65 75.31 89.95 71.68 94.11 71.84 87.73"/><polygon class="cls-9" points="76.15 82.94 79.66 79.05 79.4 85.26 75.94 89.24 76.15 82.94"/><polygon class="cls-9" points="80.27 78.37 83.62 74.65 83.32 80.78 80.01 84.58 80.27 78.37"/><polygon class="cls-9" points="84.2 74 87.41 70.44 87.07 76.49 83.9 80.13 84.2 74"/><polygon class="cls-9" points="87.96 69.82 91.04 66.41 90.66 72.38 87.62 75.87 87.96 69.82"/><polygon class="cls-9" points="91.56 65.81 94.51 62.55 94.1 68.44 91.19 71.78 91.56 65.81"/><polygon class="cls-9" points="95.02 61.98 97.85 58.84 97.41 64.66 94.61 67.87 95.02 61.98"/><polygon class="cls-9" points="71.65 95.21 75.28 91.05 75.07 97.15 71.5 101.39 71.65 95.21"/><polygon class="cls-9" points="75.9 90.32 79.36 86.35 79.11 92.38 75.69 96.43 75.9 90.32"/><polygon class="cls-9" points="79.96 85.66 83.27 81.85 82.98 87.81 79.7 91.68 79.96 85.66"/><polygon class="cls-9" points="83.84 81.19 87.01 77.55 86.68 83.43 83.55 87.14 83.84 81.19"/><polygon class="cls-9" points="87.56 76.92 90.6 73.43 90.23 79.23 87.22 82.79 87.56 76.92"/><polygon class="cls-9" points="91.12 72.82 94.03 69.47 93.63 75.21 90.75 78.62 91.12 72.82"/><polygon class="cls-9" points="94.53 68.89 97.33 65.68 96.9 71.34 94.14 74.62 94.53 68.89"/><polygon class="cls-10" points="49.43 9.79 55.27 11.08 51.71 13.38 45.79 12.04 49.43 9.79"/><polygon class="cls-10" points="56.32 11.31 62.3 12.63 58.82 14.98 52.76 13.61 56.32 11.31"/><polygon class="cls-11" points="63.37 12.87 69.49 14.21 66.1 16.62 59.9 15.22 63.37 12.87"/><polygon class="cls-11" points="70.59 14.46 76.86 15.84 73.57 18.31 67.2 16.87 70.59 14.46"/><polygon class="cls-11" points="77.99 16.09 84.42 17.5 81.22 20.03 74.69 18.56 77.99 16.09"/><polygon class="cls-11" points="85.57 17.76 92.16 19.21 89.06 21.8 82.37 20.29 85.57 17.76"/><polygon class="cls-10" points="93.34 19.47 100.09 20.96 97.11 23.62 90.25 22.07 93.34 19.47"/><polygon class="cls-10" points="45.15 12.45 51.06 13.79 47.35 16.18 41.36 14.78 45.15 12.45"/><polygon class="cls-10" points="52.13 14.03 58.19 15.4 54.56 17.85 48.42 16.42 52.13 14.03"/><polygon class="cls-11" points="59.28 15.65 65.48 17.05 61.95 19.57 55.65 18.1 59.28 15.65"/><polygon class="cls-11" points="66.6 17.31 72.96 18.75 69.52 21.32 63.06 19.82 66.6 17.31"/><polygon class="cls-11" points="74.11 19.01 80.63 20.48 77.29 23.13 70.67 21.59 74.11 19.01"/><polygon class="cls-11" points="81.81 20.75 88.49 22.27 85.26 24.98 78.46 23.4 81.81 20.75"/><polygon class="cls-10" points="89.7 22.54 96.56 24.09 93.44 26.88 86.46 25.25 89.7 22.54"/><polygon class="cls-10" points="40.68 15.21 46.68 16.61 42.8 19.1 36.73 17.65 40.68 15.21"/><polygon class="cls-10" points="47.75 16.86 53.9 18.29 50.11 20.85 43.88 19.36 47.75 16.86"/><polygon class="cls-11" points="55 18.55 61.3 20.02 57.61 22.64 51.22 21.11 55 18.55"/><polygon class="cls-11" points="62.43 20.28 68.89 21.78 65.29 24.48 58.74 22.91 62.43 20.28"/><polygon class="cls-11" points="70.05 22.06 76.68 23.6 73.18 26.36 66.46 24.75 70.05 22.06"/><polygon class="cls-11" points="77.87 23.88 84.67 25.46 81.28 28.3 74.38 26.64 77.87 23.88"/><polygon class="cls-10" points="85.89 25.75 92.86 27.37 89.6 30.29 82.51 28.59 85.89 25.75"/><polygon class="cls-10" points="36.02 18.09 42.1 19.55 38.06 22.16 31.9 20.64 36.02 18.09"/><polygon class="cls-10" points="43.19 19.81 49.42 21.31 45.47 23.98 39.15 22.42 43.19 19.81"/><polygon class="cls-11" points="50.54 21.58 56.93 23.11 53.07 25.85 46.59 24.25 50.54 21.58"/><polygon class="cls-11" points="58.08 23.39 64.64 24.96 60.87 27.77 54.22 26.13 58.08 23.39"/><polygon class="cls-11" points="65.82 25.25 72.54 26.86 68.89 29.75 62.05 28.06 65.82 25.25"/><polygon class="cls-11" points="73.76 27.15 80.66 28.8 77.12 31.78 70.1 30.04 73.76 27.15"/><polygon class="cls-10" points="81.91 29.11 89 30.81 85.58 33.86 78.36 32.08 81.91 29.11"/><polygon class="cls-10" points="31.16 21.1 37.32 22.62 33.1 25.35 26.86 23.76 31.16 21.1"/><polygon class="cls-10" points="38.43 22.9 44.75 24.46 40.61 27.25 34.21 25.63 38.43 22.9"/><polygon class="cls-11" points="45.88 24.74 52.37 26.34 48.32 29.21 41.75 27.54 45.88 24.74"/><polygon class="cls-11" points="53.53 26.64 60.19 28.28 56.25 31.23 49.49 29.51 53.53 26.64"/><polygon class="cls-11" points="61.38 28.58 68.22 30.26 64.39 33.3 57.45 31.53 61.38 28.58"/><polygon class="cls-11" points="69.45 30.57 76.47 32.31 72.75 35.42 65.62 33.6 69.45 30.57"/><polygon class="cls-10" points="77.73 32.62 84.95 34.4 81.36 37.6 74.02 35.74 77.73 32.62"/><polygon class="cls-10" points="26.09 24.24 32.33 25.83 27.91 28.68 21.58 27.02 26.09 24.24"/><polygon class="cls-10" points="33.45 26.12 39.86 27.75 35.53 30.68 29.03 28.98 33.45 26.12"/><polygon class="cls-11" points="41.01 28.05 47.59 29.73 43.35 32.73 36.68 30.98 41.01 28.05"/><polygon class="cls-11" points="48.77 30.03 55.53 31.75 51.4 34.84 44.54 33.04 48.77 30.03"/><polygon class="cls-11" points="56.74 32.07 63.69 33.84 59.67 37.01 52.62 35.16 56.74 32.07"/><polygon class="cls-11" points="64.94 34.16 72.07 35.98 68.17 39.24 60.92 37.34 64.94 34.16"/><polygon class="cls-10" points="73.36 36.31 80.69 38.18 76.92 41.54 69.46 39.58 73.36 36.31"/><polygon class="cls-10" points="20.78 27.53 27.1 29.19 22.47 32.18 16.06 30.44 20.78 27.53"/><polygon class="cls-10" points="28.24 29.5 34.74 31.2 30.2 34.27 23.61 32.48 28.24 29.5"/><polygon class="cls-11" points="35.91 31.52 42.58 33.27 38.14 36.43 31.37 34.59 35.91 31.52"/><polygon class="cls-11" points="43.78 33.59 50.64 35.4 46.31 38.64 39.34 36.75 43.78 33.59"/><polygon class="cls-11" points="51.88 35.73 58.93 37.58 54.71 40.92 47.55 38.97 51.88 35.73"/><polygon class="cls-11" points="60.2 37.92 67.46 39.83 63.36 43.26 55.98 41.26 60.2 37.92"/><polygon class="cls-10" points="68.77 40.18 76.23 42.14 72.27 45.68 64.67 43.61 68.77 40.18"/><polygon class="cls-11" points="15.69 31.32 22.1 33.06 22.59 40.14 16.27 38.34 15.69 31.32"/><polygon class="cls-11" points="23.24 33.38 29.82 35.17 30.21 42.32 23.72 40.46 23.24 33.38"/><polygon class="cls-7" points="31 35.49 37.77 37.33 38.05 44.55 31.38 42.65 31 35.49"/><polygon class="cls-7" points="38.97 37.67 45.93 39.56 46.11 46.85 39.26 44.89 38.97 37.67"/><polygon class="cls-7" points="47.17 39.91 54.34 41.85 54.4 49.22 47.35 47.2 47.17 39.91"/><polygon class="cls-7" points="55.61 42.21 62.98 44.21 62.92 51.65 55.67 49.57 55.61 42.21"/><polygon class="cls-11" points="64.29 44.58 71.89 46.64 71.7 54.15 64.23 52.01 64.29 44.58"/><polygon class="cls-11" points="16.36 39.56 22.68 41.37 23.15 48.23 16.92 46.36 16.36 39.56"/><polygon class="cls-11" points="23.8 41.7 30.29 43.55 30.67 50.48 24.27 48.56 23.8 41.7"/><polygon class="cls-7" points="31.44 43.89 38.11 45.8 38.39 52.8 31.82 50.82 31.44 43.89"/><polygon class="cls-7" points="39.3 46.15 46.15 48.11 46.32 55.17 39.57 53.14 39.3 46.15"/><polygon class="cls-7" points="47.37 48.47 54.42 50.49 54.48 57.61 47.54 55.53 47.37 48.47"/><polygon class="cls-7" points="55.67 50.86 62.92 52.93 62.87 60.12 55.73 57.98 55.67 50.86"/><polygon class="cls-11" points="64.21 53.31 71.68 55.45 71.5 62.71 64.16 60.5 64.21 53.31"/><polygon class="cls-11" points="17.01 47.55 23.24 49.42 23.7 56.08 17.55 54.15 17.01 47.55"/><polygon class="cls-11" points="24.34 49.76 30.74 51.68 31.11 58.4 24.8 56.42 24.34 49.76"/><polygon class="cls-7" points="31.88 52.03 38.45 54.01 38.71 60.78 32.24 58.75 31.88 52.03"/><polygon class="cls-7" points="39.61 54.36 46.36 56.39 46.53 63.23 39.88 61.14 39.61 54.36"/><polygon class="cls-7" points="47.56 56.76 54.5 58.84 54.56 65.74 47.73 63.6 47.56 56.76"/><polygon class="cls-7" points="55.73 59.22 62.87 61.37 62.81 68.33 55.79 66.12 55.73 59.22"/><polygon class="cls-11" points="64.13 61.76 71.48 63.96 71.3 70.98 64.08 68.72 64.13 61.76"/><polygon class="cls-11" points="17.64 55.3 23.78 57.23 24.23 63.7 18.17 61.71 17.64 55.3"/><polygon class="cls-11" points="24.87 57.58 31.18 59.56 31.53 66.08 25.32 64.05 24.87 57.58"/><polygon class="cls-7" points="32.3 59.92 38.77 61.95 39.03 68.53 32.65 66.44 32.3 59.92"/><polygon class="cls-7" points="39.92 62.32 46.57 64.41 46.73 71.04 40.18 68.89 39.92 62.32"/><polygon class="cls-7" points="47.75 64.79 54.58 66.94 54.63 73.62 47.91 71.42 47.75 64.79"/><polygon class="cls-7" points="55.79 67.33 62.81 69.53 62.76 76.27 55.85 74.01 55.79 67.33"/><polygon class="cls-11" points="64.06 69.93 71.28 72.2 71.11 78.99 64 76.67 64.06 69.93"/><polygon class="cls-11" points="18.25 62.83 24.31 64.81 24.74 71.09 18.77 69.05 18.25 62.83"/><polygon class="cls-11" points="25.39 65.17 31.6 67.21 31.95 73.53 25.82 71.44 25.39 65.17"/><polygon class="cls-7" points="32.7 67.58 39.08 69.66 39.34 76.04 33.05 73.9 32.7 67.58"/><polygon class="cls-7" points="40.22 70.04 46.77 72.19 46.92 78.61 40.47 76.42 40.22 70.04"/><polygon class="cls-7" points="47.93 72.57 54.65 74.77 54.71 81.25 48.08 79 47.93 72.57"/><polygon class="cls-7" points="55.85 75.17 62.76 77.44 62.71 83.96 55.9 81.65 55.85 75.17"/><polygon class="cls-11" points="63.99 77.84 71.09 80.17 70.92 86.75 63.93 84.37 63.99 77.84"/><polygon class="cls-11" points="18.85 70.14 24.82 72.17 25.24 78.27 19.35 76.19 18.85 70.14"/><polygon class="cls-11" points="25.88 72.54 32.01 74.63 32.35 80.76 26.3 78.63 25.88 72.54"/><polygon class="cls-7" points="33.1 75 39.39 77.14 39.63 83.33 33.43 81.14 33.1 75"/><polygon class="cls-7" points="40.5 77.53 46.96 79.72 47.11 85.95 40.75 83.71 40.5 77.53"/><polygon class="cls-7" points="48.1 80.12 54.73 82.37 54.78 88.65 48.25 86.35 48.1 80.12"/><polygon class="cls-7" points="55.9 82.78 62.71 85.09 62.66 91.42 55.96 89.06 55.9 82.78"/><polygon class="cls-11" points="63.91 85.51 70.91 87.89 70.75 94.27 63.87 91.84 63.91 85.51"/><polygon class="cls-11" points="19.43 77.24 25.32 79.32 25.73 85.24 19.91 83.12 19.43 77.24"/><polygon class="cls-11" points="26.37 79.7 32.41 81.83 32.74 87.79 26.77 85.61 26.37 79.7"/><polygon class="cls-7" points="33.48 82.21 39.68 84.4 39.92 90.4 33.81 88.17 33.48 82.21"/><polygon class="cls-7" points="40.78 84.79 47.14 87.03 47.29 93.08 41.02 90.8 40.78 84.79"/><polygon class="cls-7" points="48.27 87.44 54.8 89.74 54.85 95.83 48.42 93.49 48.27 87.44"/><polygon class="cls-7" points="55.96 90.16 62.66 92.52 62.61 98.66 56.01 96.25 55.96 90.16"/><polygon class="cls-11" points="63.85 92.94 70.73 95.37 70.57 101.55 63.8 99.08 63.85 92.94"/><path class="cls-12" d="M44,88.94q-15.53-54.22,24-69.62"/><path class="cls-13" d="M69.57,18.73l-1.75,2.19-1-2.62Z"/><polygon class="cls-14" points="168.7 47.08 173.42 61.6 161.06 70.58 148.71 61.6 153.42 47.08 168.7 47.08"/><polygon class="cls-15" points="168.7 47.08 153.42 47.08 148.71 61.6 161.06 70.58 173.42 61.6 168.7 47.08"/><path class="cls-16" d="M160.91,71a.47.47,0,0,1-.3-.1l-12.36-9a.51.51,0,0,1-.18-.58l4.71-14.53a.52.52,0,0,1,.5-.35h15.27a.52.52,0,0,1,.49.35l4.72,14.53a.52.52,0,0,1-.19.58l-12.35,9A.5.5,0,0,1,160.91,71Zm-11.74-9.7,11.74,8.54,11.75-8.54-4.49-13.81H153.65Z"/><polygon class="cls-17" points="198.92 58.11 198.95 69.34 195.39 68.16 191.31 55.61 198.92 58.11"/><path class="cls-16" d="M199,69.85h0a.41.41,0,0,1-.16,0l-3.57-1.18a.52.52,0,0,1-.33-.33l-4.08-12.55a.52.52,0,0,1,.13-.53.54.54,0,0,1,.53-.12l7.61,2.5a.51.51,0,0,1,.36.49l0,11.06a1,1,0,0,1,0,.17A.51.51,0,0,1,199,69.85Zm-3.18-2.1,2.63.87,0-10.13-6.29-2.07Z"/><polygon class="cls-17" points="195.39 68.16 188.53 65.91 184.45 53.35 191.31 55.61 195.39 68.16"/><path class="cls-18" d="M195.39,68.68a.51.51,0,0,1-.17,0l-6.86-2.25a.53.53,0,0,1-.33-.34L184,53.51a.52.52,0,0,1,.13-.53.54.54,0,0,1,.53-.12l6.86,2.26a.5.5,0,0,1,.33.33l4,12.41a.52.52,0,0,1-.42.82Zm-6.45-3.19,5.64,1.86L190.9,56l-5.64-1.86Z"/><polygon class="cls-17" points="186.57 41.03 191.26 34.52 198.89 45.09 198.92 58.11 191.31 55.61 186.57 41.03"/><path class="cls-18" d="M198.92,58.63l-.16,0-7.62-2.51a.52.52,0,0,1-.33-.33l-4.73-14.58a.5.5,0,0,1,.07-.47l4.68-6.5a.54.54,0,0,1,.85,0l7.63,10.56a.49.49,0,0,1,.1.3l0,12.87a.45.45,0,0,1,0,.16.5.5,0,0,1-.54.52Zm-7.2-3.43,6.68,2.2,0-12.15-7.11-9.85-4.12,5.71Z"/><polygon class="cls-17" points="198.95 69.16 198.92 58.11 205.78 60.38 206.1 71.58 198.95 69.16"/><path class="cls-18" d="M206.13,72.1h0a.44.44,0,0,1-.16,0l-7.16-2.43a.52.52,0,0,1-.35-.49l0-11a.53.53,0,0,1,.22-.43.5.5,0,0,1,.46-.07l6.86,2.26a.53.53,0,0,1,.36.48l.32,11v.17A.73.73,0,0,1,206.13,72.1Zm-6.66-3.31,6.09,2.06-.29-10.1-5.83-1.92Z"/><polygon class="cls-17" points="198.89 45.09 205.77 54.59 205.78 60.38 198.92 58.11 198.89 45.09"/><path class="cls-18" d="M205.78,60.89a.44.44,0,0,1-.16,0l-6.86-2.26a.53.53,0,0,1-.36-.49l0-13a.53.53,0,0,1,.36-.5.52.52,0,0,1,.58.19l6.88,9.51a.54.54,0,0,1,.1.3v5.79a.5.5,0,0,1-.49.51Zm-6.34-3.15,5.82,1.92v-4.9l-5.83-8.07Z"/><polygon class="cls-17" points="191.31 55.61 184.45 53.35 182.34 46.88 186.57 41.03 191.31 55.61"/><path class="cls-18" d="M191.31,56.13a.51.51,0,0,1-.17,0l-6.86-2.26a.52.52,0,0,1-.33-.33L181.85,47a.54.54,0,0,1,.07-.46l4.23-5.86a.51.51,0,0,1,.91.15l4.69,14.44a.52.52,0,0,1-.42.82Zm-6.45-3.19,5.64,1.86-4.11-12.64L182.92,47Z"/><polygon class="cls-17" points="191.72 34.52 195.68 28.67 198.87 33.37 198.89 45.09 191.72 34.52"/><path class="cls-18" d="M198.89,45.6a.51.51,0,0,1-.42-.21l-7.63-10.57a.5.5,0,0,1,0-.6l4.22-5.85a.54.54,0,0,1,.84,0l3.4,4.69a.56.56,0,0,1,.09.31l0,11.55a.47.47,0,0,1,0,.17.52.52,0,0,1-.52.51Zm-7-11.08,6.47,9,0-9.94-2.88-4Z"/><polygon class="cls-17" points="198.87 33.37 205.74 42.88 205.77 54.59 198.89 45.09 198.87 33.37"/><path class="cls-18" d="M205.77,55.11a.5.5,0,0,1-.42-.21l-6.88-9.51a.57.57,0,0,1-.1-.3l0-11.72a.5.5,0,0,1,.36-.49.52.52,0,0,1,.58.18l6.87,9.52a.54.54,0,0,1,.1.3l0,11.55v.16a.5.5,0,0,1-.5.52Zm-6.36-10.19L205.25,53l0-9.94L199.39,35Z"/><polygon class="cls-17" points="182.34 46.88 178.08 33.77 182.3 27.91 186.57 41.03 182.34 46.88"/><path class="cls-18" d="M182.34,47.4h-.08a.52.52,0,0,1-.41-.36l-4.26-13.11a.54.54,0,0,1,.07-.46l4.22-5.86a.6.6,0,0,1,.51-.21.52.52,0,0,1,.41.36l4.26,13.11a.54.54,0,0,1-.07.46l-4.22,5.86A.55.55,0,0,1,182.34,47.4Zm-3.68-13.54,3.86,11.89L186,40.94l-3.86-11.89Z"/><polygon class="cls-17" points="184.39 25.02 188.6 19.17 195.47 28.67 191.26 34.52 184.39 25.02"/><path class="cls-18" d="M191.26,35a.5.5,0,0,1-.42-.22L184,25.33a.53.53,0,0,1,0-.61l4.21-5.85a.51.51,0,0,1,.42-.22h0c.17,0,.52,0,.62.16l6.67,9.56a.53.53,0,0,1,0,.61l-4.21,5.84A.52.52,0,0,1,191.26,35ZM185,25l6.23,8.61,3.57-5-6.23-8.61Z"/><polygon class="cls-17" points="186.57 41.03 182.3 27.91 184.39 25.02 191.26 34.52 186.57 41.03"/><path class="cls-18" d="M186.57,41.54h-.08a.5.5,0,0,1-.41-.35l-4.27-13.11a.56.56,0,0,1,.07-.47L184,24.72a.54.54,0,0,1,.84,0l6.87,9.5a.51.51,0,0,1,0,.6L187,41.33A.51.51,0,0,1,186.57,41.54ZM182.88,28l3.86,11.89,3.88-5.37-6.23-8.61Z"/><polygon class="cls-19" points="160.91 70.43 171.55 78.16 177.33 73.95 173.27 61.45 160.91 70.43"/><polygon class="cls-19" points="177.33 73.95 188.47 65.87 184.4 53.37 173.27 61.45 177.33 73.95"/><path class="cls-18" d="M177.33,74.47a.44.44,0,0,1-.16,0,.52.52,0,0,1-.33-.33l-4.07-12.51A.52.52,0,0,1,173,61L184.1,53a.5.5,0,0,1,.46-.08.51.51,0,0,1,.33.34L189,65.71a.52.52,0,0,1-.19.58l-11.13,8.08A.5.5,0,0,1,177.33,74.47Zm-3.45-12.82,3.72,11.47,10.25-7.45L184.13,54.2Z"/><polygon class="cls-19" points="171.7 78.31 161.06 70.58 149.94 78.66 160.58 86.39 171.7 78.31"/><path class="cls-18" d="M160.43,86.76a.57.57,0,0,1-.31-.1l-10.64-7.73a.53.53,0,0,1-.21-.42.54.54,0,0,1,.21-.42L160.61,70a.53.53,0,0,1,.61,0l10.63,7.73a.51.51,0,0,1,0,.84l-11.12,8.08A.57.57,0,0,1,160.43,86.76Zm-9.76-8.25,9.76,7.09,10.24-7.44-9.76-7.09Z"/><polygon class="cls-19" points="148.71 61.6 144.46 74.68 149.94 78.66 161.06 70.58 148.71 61.6"/><polygon class="cls-19" points="173.27 61.45 184.4 53.37 182.3 46.92 168.55 46.92 173.27 61.45"/><polygon class="cls-20" points="153.43 47.08 139.7 47.08 137.6 53.53 148.71 61.6 153.43 47.08"/><polygon class="cls-20" points="137.6 53.53 133.35 66.61 144.46 74.68 148.71 61.6 137.6 53.53"/><polygon class="cls-19" points="182.3 46.92 178.06 33.87 164.31 33.87 168.55 46.92 182.3 46.92"/><polygon class="cls-20" points="157.67 34.02 143.94 34.02 139.7 47.08 153.43 47.08 157.67 34.02"/><polygon class="cls-19" points="168.7 47.08 164.46 34.02 157.67 34.02 153.43 47.08 168.7 47.08"/><path class="cls-21" d="M171.51,85.57l-10.84,7.82c0,1.24.08,2.48.12,3.71l10.85-3.53c0-1.32,0-2.65-.07-4Z"/><path class="cls-16" d="M160.79,97.62a.53.53,0,0,1-.3-.09.56.56,0,0,1-.22-.41l0-.7c0-1-.07-2-.1-3a.53.53,0,0,1,.22-.43l10.84-7.83a.53.53,0,0,1,.53,0,.54.54,0,0,1,.29.46l.13,8a.54.54,0,0,1-.36.51l-8.18,2.65-2.67.87Zm.41-4c0,.92.05,1.83.08,2.74h0l2-.65,7.81-2.54-.1-6.63Z"/><path class="cls-21" d="M160.79,97.1c.07,2.35.15,4.7.21,7l10.75-3.5q-.06-3.51-.11-7.06Z"/><path class="cls-18" d="M161,104.65a.49.49,0,0,1-.3-.1.53.53,0,0,1-.22-.41q-.09-3.49-.21-7a.52.52,0,0,1,.36-.51l2.68-.87,8.17-2.66a.48.48,0,0,1,.46.07.56.56,0,0,1,.22.41l.11,7.06a.53.53,0,0,1-.36.5l-10.75,3.5A.41.41,0,0,1,161,104.65Zm.32-7.18c.06,2,.13,4,.18,6l9.72-3.17-.09-6-7.5,2.44Z"/><path class="cls-21" d="M184.17,89.5,192,78.93l-3.88-1.26-3.92-1.28L177.85,81l-6.34,4.58.06,4c0,1.33,0,2.66.07,4Z"/><path class="cls-22" d="M171.64,94.09a.45.45,0,0,1-.3-.1.48.48,0,0,1-.22-.41l-.13-8a.53.53,0,0,1,.22-.43l6.34-4.57,6.37-4.6a.53.53,0,0,1,.47-.07l7.79,2.54a.5.5,0,0,1,.33.33.53.53,0,0,1-.07.47l-7.85,10.57a.53.53,0,0,1-.26.18L171.8,94.06Zm.39-8.26.11,7,11.71-3.81,7.32-9.85L184.31,77l-6.15,4.44Z"/><path class="cls-21" d="M160.67,93.39l10.84-7.82q-.06-3.66-.11-7.37l-11,7.93Q160.56,89.79,160.67,93.39Z"/><path class="cls-18" d="M160.67,93.91a.59.59,0,0,1-.23,0,.54.54,0,0,1-.29-.45l-.23-7.26a.54.54,0,0,1,.22-.44l11-7.93a.51.51,0,0,1,.82.41l.11,7.37a.53.53,0,0,1-.22.43L161,93.81A.47.47,0,0,1,160.67,93.91Zm.3-7.52.19,6L171,85.3l-.09-6.1Z"/><path class="cls-21" d="M184.22,76.39l-7.14-2.31L171.4,78.2q0,3.7.11,7.37L177.85,81Z"/><path class="cls-18" d="M171.51,86.08a.46.46,0,0,1-.23,0,.51.51,0,0,1-.29-.46l-.11-7.37a.51.51,0,0,1,.22-.42l5.67-4.11a.55.55,0,0,1,.46-.08q3.3,1.05,6.56,2.12l.59.19a.52.52,0,0,1,.36.41.53.53,0,0,1-.21.51l-6.37,4.59L171.81,86A.53.53,0,0,1,171.51,86.08Zm.41-7.62.09,6.11,5.54-4,5.54-4-5.92-1.91Z"/><path class="cls-21" d="M171.64,93.57q0,3.56.11,7.06c1.83-.61,3.67-1.21,5.5-1.8l6.92-9.33Z"/><path class="cls-18" d="M171.75,101.14a.56.56,0,0,1-.31-.09.53.53,0,0,1-.21-.42l-.11-7a.5.5,0,0,1,.36-.5L184,89a.52.52,0,0,1,.58.19.53.53,0,0,1,0,.62l-6.92,9.33a.58.58,0,0,1-.26.18c-1.83.59-3.67,1.19-5.5,1.8A.44.44,0,0,1,171.75,101.14Zm.41-7.19.1,6,4.67-1.53,5.86-7.89Z"/><path class="cls-21" d="M192,78.93l7.19-9.68-3.46-1.17-11.53,8.31,3.92,1.28Z"/><path class="cls-18" d="M192,79.45a.41.41,0,0,1-.16,0l-7.8-2.53a.52.52,0,0,1-.14-.92l11.53-8.31a.48.48,0,0,1,.46-.07l2.66.89.8.28a.5.5,0,0,1,.33.33.53.53,0,0,1-.08.47l-7.18,9.68A.54.54,0,0,1,192,79.45Zm-6.66-3.23,6.47,2.1,6.54-8.81-.13,0-2.4-.81Z"/><path class="cls-21" d="M195.75,68.08l-7.08-2.4-11.59,8.4,7.14,2.31Z"/><path class="cls-21" d="M177.25,98.83l11.14-3.64c2.32-3.09,4.66-6.22,7-9.35L184.17,89.5Z"/><path class="cls-18" d="M177.25,99.34a.51.51,0,0,1-.42-.21.53.53,0,0,1,0-.61l6.92-9.33A.61.61,0,0,1,184,89l11.24-3.65a.5.5,0,0,1,.58.19.53.53,0,0,1,0,.61l-7,9.35a.51.51,0,0,1-.26.18l-11.14,3.64A.44.44,0,0,1,177.25,99.34Zm7.24-9.4-5.85,7.89q4.73-1.56,9.44-3.08L194,86.84Z"/><path class="cls-21" d="M198.92,81.17l7.18-9.59-6.89-2.33L192,78.93Z"/><path class="cls-18" d="M198.92,81.68a.44.44,0,0,1-.16,0l-1.66-.54c-1.74-.56-3.49-1.12-5.24-1.7a.52.52,0,0,1-.26-.8l7.19-9.68a.52.52,0,0,1,.58-.18l4.56,1.54,2.34.79a.53.53,0,0,1,.25.81l-7.18,9.58A.53.53,0,0,1,198.92,81.68Zm-6-3,4.55,1.48,1.31.42,6.53-8.71-1.67-.57-4.19-1.42Z"/><path class="cls-21" d="M184.17,89.5l11.24-3.66,3.51-4.67L192,78.93Z"/><path class="cls-18" d="M184.17,90a.51.51,0,0,1-.42-.21.53.53,0,0,1,0-.61l7.85-10.57a.51.51,0,0,1,.58-.18l5.21,1.69,1.69.54a.55.55,0,0,1,.34.34.53.53,0,0,1-.08.47l-3.51,4.67a.51.51,0,0,1-.26.18L184.33,90A.44.44,0,0,1,184.17,90Zm8-10.47-6.65,9,9.53-3.1,3-4-1-.33Z"/><path class="cls-23" d="M137.55,76.86Q132.2,73,126.74,69l-3.5,1.21q3.48,4.61,6.9,9.17l3.7-1.27Z"/><path class="cls-18" d="M130.14,79.93a.56.56,0,0,1-.42-.21l-6.89-9.17a.5.5,0,0,1-.08-.46.52.52,0,0,1,.32-.34l3.5-1.21a.5.5,0,0,1,.47.07l10.82,7.83a.52.52,0,0,1-.14.91l-7.41,2.55A.51.51,0,0,1,130.14,79.93Zm-6-9.43,6.24,8.3,6.11-2.11-9.79-7.08Z"/><path class="cls-23" d="M123.24,70.24l-6.74,2.32,7,9.14,6.67-2.29Q126.72,74.85,123.24,70.24Z"/><path class="cls-18" d="M123.47,82.22a.53.53,0,0,1-.42-.2l-7-9.14a1.5,1.5,0,0,1-.23-.86c0-.19,0-.19.11-.22,1.72-.51,3.76-.9,5.45-1.48l1.66-.57a.51.51,0,0,1,.58.18l6.89,9.17a.54.54,0,0,1,.09.46.53.53,0,0,1-.33.34l-6.68,2.29A.45.45,0,0,1,123.47,82.22Zm-6.12-9.4,6.3,8.27,5.65-1.94-6.24-8.3-1.3.45Z"/><path class="cls-24" d="M138,89.82,150,93.66c0-1.3-.07-2.62-.09-3.93s-.05-2.64-.08-4l-6.11-4.42c-2.05-1.49-4.11-3-6.19-4.48l-3.71,1.28-3.7,1.27Z"/><path class="cls-18" d="M150,94.18l-.16,0c-3.16-1-6.33-2-9.5-3l-2.55-.82a.51.51,0,0,1-.26-.18l-7.83-10.41a.52.52,0,0,1,.25-.8l7.41-2.55a.52.52,0,0,1,.48.07l12.3,8.9a.52.52,0,0,1,.21.41l.08,4c0,.76,0,1.51.05,2.27l0,1.66a.51.51,0,0,1-.2.43A.63.63,0,0,1,150,94.18Zm-11.74-4.8,2.39.76c3,.93,5.88,1.87,8.81,2.81l0-.94c0-.76,0-1.52,0-2.27L149.34,86l-11.87-8.6L131,79.67Z"/><path class="cls-23" d="M126.74,69q5.45,3.93,10.81,7.83l6.69-2.31-10.76-7.86C131.24,67.48,129,68.25,126.74,69Z"/><path class="cls-18" d="M137.55,77.37a.55.55,0,0,1-.3-.09q-5.37-3.9-10.82-7.83a.56.56,0,0,1-.21-.5.51.51,0,0,1,.35-.41l.39-.14,6.35-2.2a.55.55,0,0,1,.48.08l10.76,7.86a.52.52,0,0,1,.21.49.51.51,0,0,1-.35.41l-6.69,2.31Zm-9.7-8.18,9.79,7.09,5.5-1.89-9.75-7.12C131.55,67.92,129.7,68.55,127.85,69.19Z"/><path class="cls-24" d="M149.85,85.76c0-2.39-.09-4.8-.14-7.21l-5.47-4-6.69,2.31c2.08,1.49,4.14,3,6.19,4.48Z"/><path class="cls-18" d="M149.85,86.28a.49.49,0,0,1-.3-.1l-12.3-8.9a.52.52,0,0,1-.21-.5.51.51,0,0,1,.34-.41l6.7-2.31a.53.53,0,0,1,.47.08l5.47,4a.52.52,0,0,1,.21.41c.05,2.41.1,4.82.14,7.21a.5.5,0,0,1-.28.47A.48.48,0,0,1,149.85,86.28ZM138.67,77l10.65,7.71-.12-5.91-5-3.69Z"/><path class="cls-24" d="M130.14,79.41l-6.67,2.29L127,86.33l11,3.49Z"/><path class="cls-18" d="M138,90.34a.41.41,0,0,1-.16,0l-11-3.48a.68.68,0,0,1-.26-.18L123.05,82a.53.53,0,0,1-.08-.47.51.51,0,0,1,.33-.34L130,78.92a.52.52,0,0,1,.58.18l7.83,10.41a.51.51,0,0,1,0,.61A.52.52,0,0,1,138,90.34Zm-10.66-4.45,9.27,2.94L130,80,124.32,82Z"/><path class="cls-24" d="M150,93.66l10.69,3.4,0-3.46-10.83-7.84c0,1.33.06,2.65.08,4S150,92.36,150,93.66Z"/><path class="cls-18" d="M160.71,97.58l-.16,0q-5.33-1.71-10.69-3.4a.53.53,0,0,1-.36-.49l0-1.66c0-.76,0-1.52,0-2.27l-.09-4a.53.53,0,0,1,.28-.47.52.52,0,0,1,.55,0L161,93.18a.49.49,0,0,1,.22.41l0,3.47a.53.53,0,0,1-.21.42A.5.5,0,0,1,160.71,97.58Zm-10.18-4.3,9.66,3.07,0-2.49-9.77-7.07.06,2.93c0,.76,0,1.51.05,2.27Z"/><path class="cls-24" d="M160.68,93.6q0-3.52-.06-7.09l-10.91-8c0,2.41.1,4.82.14,7.21Z"/><path class="cls-18" d="M160.68,94.11a.53.53,0,0,1-.3-.09l-10.83-7.84a.56.56,0,0,1-.22-.41c0-2.39-.09-4.8-.14-7.21a.53.53,0,0,1,.28-.47.54.54,0,0,1,.55,0l10.9,8a.54.54,0,0,1,.21.42l.07,7.08a.53.53,0,0,1-.28.47A.52.52,0,0,1,160.68,94.11Zm-10.31-8.62,9.78,7.08-.05-5.79-9.85-7.19Z"/><path class="cls-24" d="M127,86.33l7,9.24L144.86,99,138,89.82Z"/><path class="cls-18" d="M144.86,99.5l-.16,0-10.83-3.42a.45.45,0,0,1-.25-.18l-7-9.23a.52.52,0,0,1,.57-.81l11,3.49a.44.44,0,0,1,.26.18q3.48,4.6,6.89,9.16a.51.51,0,0,1,0,.61A.52.52,0,0,1,144.86,99.5Zm-10.52-4.38L143.47,98l-5.82-7.74-9.25-2.94Z"/><path class="cls-24" d="M150,100.38l10.62,3.34q0-3.45-.07-6.93l-10.69-3.4C149.93,95.73,150,98.06,150,100.38Z"/><path class="cls-18" d="M160.73,104.5s.19.15.14.13l-1.3-.47-9.61-3a.51.51,0,0,1-.36-.48l-.14-7a.49.49,0,0,1,.21-.42.45.45,0,0,1,.46-.08l10.7,3.4a.53.53,0,0,1,.36.49v.18q0,3.39.06,6.75a.53.53,0,0,1-.21.42A.5.5,0,0,1,160.73,104.5Zm-10.11-4.24,9.26,2.91.33.11c0-2,0-3.89-.05-5.84l-9.65-3.07Z"/><path class="cls-24" d="M138,89.82,144.86,99l5.29,1.67c0-2.32-.09-4.65-.13-7Z"/><path class="cls-18" d="M150.15,101.17l-.15,0-5.3-1.67a.58.58,0,0,1-.26-.18l-6.89-9.17a.51.51,0,0,1,.57-.8l2.57.81,9.48,3a.51.51,0,0,1,.36.48l.14,7a.49.49,0,0,1-.21.43A.5.5,0,0,1,150.15,101.17Zm-5-2.63,4.45,1.4L149.5,94l-9.13-2.91-1-.32Z"/><path class="cls-25" d="M135.44,40.8q2.06-6.34,4.12-12.73c-.72-1-1.45-2-2.18-3l-6.56,9.27c.76,1.09,1.54,2.17,2.3,3.24Z"/><path class="cls-16" d="M135.44,41.32a.53.53,0,0,1-.43-.22l-4.62-6.48a.54.54,0,0,1,0-.6L137,24.75a.52.52,0,0,1,.41-.22c.14-.05.33.08.43.22.73,1,1.46,2,2.18,3a.47.47,0,0,1,.07.46l-.54,1.68q-1.78,5.54-3.58,11.05a.51.51,0,0,1-.41.35Zm-4-7,3.81,5.34q1.63-5,3.26-10.07l.47-1.43-1.61-2.22Z"/><path class="cls-25" d="M137.38,25.05l-4.17-5.82-6.53,9.29q2.06,2.91,4.14,5.8Z"/><path class="cls-18" d="M130.82,34.84a.51.51,0,0,1-.42-.21l-4.15-5.81a.5.5,0,0,1,0-.59l6.54-9.3a.5.5,0,0,1,.42-.22h0a.5.5,0,0,1,.42.22l4.17,5.82a.51.51,0,0,1,0,.6l-6.56,9.27a.51.51,0,0,1-.42.22Zm-3.51-6.32,3.51,4.91,5.92-8.38-3.52-4.92Z"/><path class="cls-25" d="M123.25,45l-.09,13.06c1.25-.43,2.5-.86,3.75-1.27l3.76-1.28c.8-2.45,1.59-4.89,2.38-7.35s1.6-4.9,2.39-7.37l-2.32-3.24c-.76-1.07-1.54-2.15-2.3-3.24Z"/><path class="cls-18" d="M123.16,58.58a.47.47,0,0,1-.3-.1.5.5,0,0,1-.22-.42c0-4.36.06-8.7.09-13.05a.54.54,0,0,1,.1-.3L130.39,34a.55.55,0,0,1,.85,0l4.62,6.48a.53.53,0,0,1,.07.46c-.78,2.43-1.57,4.86-2.35,7.27-.82,2.56-1.62,5-2.41,7.45a.52.52,0,0,1-.33.33l-1.76.6-2,.68-2.45.83-1.29.44A.5.5,0,0,1,123.16,58.58Zm.61-13.4q0,6.07-.08,12.16l.6-.2,2.45-.83,2-.68,1.52-.52q1.16-3.54,2.3-7.1l2.31-7.12-4.05-5.67Z"/><path class="cls-25" d="M139.56,28.07q-2.07,6.38-4.12,12.73l4.18,5.87,4.14-12.75C142.36,32,141,30,139.56,28.07Z"/><path class="cls-18" d="M139.62,47.18a.54.54,0,0,1-.42-.21L135,41.1a.51.51,0,0,1-.06-.46q1.78-5.49,3.56-11l.56-1.71a.51.51,0,0,1,.41-.35.5.5,0,0,1,.5.21l.73,1,3.47,4.84a.53.53,0,0,1,.08.47l-4.14,12.75a.54.54,0,0,1-.42.35ZM136,40.71l3.44,4.82L143.19,34l-3.33-4.63-.12-.17-.24.73Q137.76,35.34,136,40.71Z"/><path class="cls-25" d="M130.67,55.52l6.82-2.3c.72-2.18,1.43-4.37,2.13-6.55l-4.18-5.87q-1.19,3.71-2.39,7.37C132.26,50.63,131.47,53.07,130.67,55.52Z"/><path class="cls-18" d="M130.67,56a.51.51,0,0,1-.36-.15.52.52,0,0,1-.13-.53c.8-2.45,1.59-4.89,2.38-7.35l0-.12c.78-2.41,1.57-4.82,2.34-7.25a.52.52,0,0,1,.92-.14l4.19,5.87a.53.53,0,0,1,.07.46L138,53.38a.54.54,0,0,1-.33.33L130.84,56A.47.47,0,0,1,130.67,56Zm5-14.1q-1,3.15-2,6.27c-.72,2.23-1.42,4.37-2.1,6.49l5.59-1.89q1-3,2-6.06Z"/><path class="cls-25" d="M130.82,34.32q-2.08-2.89-4.14-5.8c-1.12,1.58-2.23,3.17-3.35,4.74,0,3.92,0,7.83-.08,11.75Z"/><path class="cls-18" d="M123.25,45.53l-.16,0a.54.54,0,0,1-.36-.5l.08-11.75a.54.54,0,0,1,.1-.3l3-4.26.33-.47a.52.52,0,0,1,.42-.23h0a.55.55,0,0,1,.42.22l4.14,5.8a.51.51,0,0,1,0,.6l-7.56,10.69A.53.53,0,0,1,123.25,45.53Zm.6-12.1-.07,9.94,6.4-9-3.5-4.91Q125.27,31.43,123.85,33.43Z"/><path class="cls-25" d="M123.16,58.07c0,3.9,0,7.81-.08,11.72l3.33-1.1q2.13-6.57,4.26-13.17l-3.76,1.28C125.66,57.21,124.41,57.64,123.16,58.07Z"/><path class="cls-18" d="M123.08,70.31a.51.51,0,0,1-.3-.1.52.52,0,0,1-.22-.42l.08-11.73a.53.53,0,0,1,.35-.49l1.3-.43,2.45-.83,2-.68,1.77-.6a.54.54,0,0,1,.53.12.52.52,0,0,1,.13.53l-4.26,13.17a.52.52,0,0,1-.33.33l-3.34,1.1A.41.41,0,0,1,123.08,70.31Zm.6-11.87-.08,10.63,2.4-.79,3.86-11.94-.78.27-2,.68-2.45.83Z"/><path class="cls-25" d="M126.41,68.69l6.79-2.25,4.29-13.22-6.82,2.3Q128.54,62.12,126.41,68.69Z"/><path class="cls-18" d="M126.41,69.21a.51.51,0,0,1-.36-.15.52.52,0,0,1-.13-.53l4.26-13.17a.52.52,0,0,1,.33-.33l6.82-2.3a.5.5,0,0,1,.53.12.52.52,0,0,1,.13.53l-4.3,13.22a.54.54,0,0,1-.32.34l-1.29.42c-1.84.62-3.67,1.22-5.5,1.82A.51.51,0,0,1,126.41,69.21Zm4.68-13.28-3.87,11.95,4.53-1.5,1-.35,3.89-12Z"/><path class="cls-25" d="M123.33,33.26q-3.37,4.82-6.75,9.58,0,5.85-.08,11.7,3.38-4.74,6.75-9.53C123.28,41.09,123.31,37.18,123.33,33.26Z"/><path class="cls-18" d="M116.5,55.06l-.16,0a.55.55,0,0,1-.36-.5q0-5.85.08-11.71a.51.51,0,0,1,.1-.29l.37-.52L122.91,33a.53.53,0,0,1,.58-.2.52.52,0,0,1,.36.5L123.77,45a.52.52,0,0,1-.09.29q-3.39,4.78-6.76,9.53A.52.52,0,0,1,116.5,55.06ZM117.1,43q0,4.95-.07,9.9,2.85-4,5.71-8l.06-9.93-5.42,7.7Z"/><path class="cls-25" d="M116.46,60.32c0,3.9,0,7.8-.08,11.68,2.23-.73,4.46-1.46,6.7-2.21,0-3.91,0-7.82.08-11.72Z"/><path class="cls-18" d="M116.38,72.52a.47.47,0,0,1-.3-.1.51.51,0,0,1-.22-.42l.08-11.68a.51.51,0,0,1,.36-.49L123,57.57a.52.52,0,0,1,.47.08.5.5,0,0,1,.22.42l-.08,11.72a.51.51,0,0,1-.35.49c-2.25.75-4.48,1.49-6.71,2.21A.41.41,0,0,1,116.38,72.52Zm.6-11.83-.07,10.6,5.66-1.87.07-10.63Z"/><path class="cls-25" d="M123.25,45q-3.37,4.79-6.75,9.53c0,1.94,0,3.87,0,5.78l6.7-2.25Z"/><path class="cls-18" d="M116.46,60.84a.45.45,0,0,1-.3-.1.51.51,0,0,1-.22-.42l0-5.78a.54.54,0,0,1,.1-.3c2.24-3.16,4.5-6.34,6.75-9.53a.52.52,0,0,1,.58-.19.52.52,0,0,1,.36.5c0,4.4-.06,8.72-.09,13a.52.52,0,0,1-.35.49l-6.71,2.25A.45.45,0,0,1,116.46,60.84Zm.56-6.13,0,4.89,5.66-1.91q0-5.52.08-11Z"/><path class="cls-23" d="M168.9,28h13.33l2.24-3L173.7,21.51l-2.41,3.24C170.5,25.82,169.7,26.91,168.9,28Z"/><path class="cls-18" d="M182.23,28.51H168.9a.53.53,0,0,1-.46-.28.5.5,0,0,1,.05-.54l4.79-6.48a.51.51,0,0,1,.57-.19l10.78,3.45a.56.56,0,0,1,.34.33.52.52,0,0,1-.08.47l-2.24,3A.53.53,0,0,1,182.23,28.51Zm-12.3-1h12l1.66-2.24-9.74-3.12Z"/><path class="cls-23" d="M184.47,25c1.44-1.94,2.88-3.89,4.33-5.83L178,15.67c-1.44,2-2.88,3.89-4.31,5.84Z"/><path class="cls-18" d="M184.47,25.47l-.16,0L173.54,22a.53.53,0,0,1-.34-.33.52.52,0,0,1,.08-.47l4.31-5.84a.52.52,0,0,1,.58-.19L189,18.63a.52.52,0,0,1,.26.8c-1.45,1.94-2.89,3.89-4.33,5.83A.51.51,0,0,1,184.47,25.47Zm-9.93-4.24,9.74,3.12c1.22-1.65,2.44-3.31,3.67-5l-9.74-3.11Z"/><path class="cls-23" d="M161.18,17.5l-12.54,4L151,24.74,153.42,28H168.9c.8-1.07,1.6-2.16,2.39-3.23l2.41-3.24Z"/><path class="cls-18" d="M168.9,28.5H153.42a.53.53,0,0,1-.42-.21l-4.78-6.49a.53.53,0,0,1,.26-.8l8.77-2.79L161,17a.42.42,0,0,1,.31,0l12.52,4a.52.52,0,0,1,.34.34.5.5,0,0,1-.08.46l-4.79,6.48A.53.53,0,0,1,168.9,28.5Zm-15.22-1h15l4.21-5.69L161.18,18l-3.61,1.16-8.08,2.57Z"/><path class="cls-23" d="M182.23,28H168.9l-4.32,5.83h13.33C179.36,31.88,180.79,29.93,182.23,28Z"/><path class="cls-18" d="M177.91,34.33H164.58a.53.53,0,0,1-.46-.28.5.5,0,0,1,0-.54l4.32-5.84a.51.51,0,0,1,.41-.2h13.33a.52.52,0,0,1,.47.29.55.55,0,0,1,0,.54l-1.58,2.12q-1.37,1.86-2.74,3.7A.5.5,0,0,1,177.91,34.33Zm-12.3-1h12l2.59-3.49,1-1.3h-12Z"/><path class="cls-23" d="M153.42,28c1.43,1.94,2.86,3.89,4.3,5.83h6.86L168.9,28H153.42Z"/><path class="cls-18" d="M164.58,34.33h-6.86a.5.5,0,0,1-.42-.21c-1.44-1.94-2.87-3.89-4.3-5.83a.53.53,0,0,1,0-.54.5.5,0,0,1,.46-.29H168.9a.53.53,0,0,1,.47.28.5.5,0,0,1-.05.54L165,34.12A.5.5,0,0,1,164.58,34.33Zm-6.6-1h6.34l3.56-4.8H154.44Z"/><path class="cls-23" d="M173.7,21.51c1.43-2,2.87-3.89,4.31-5.84l-5.55-1.78L161.18,17.5Z"/><path class="cls-18" d="M173.7,22a.41.41,0,0,1-.16,0L161,18a.51.51,0,0,1-.36-.49A.5.5,0,0,1,161,17l11.29-3.61a.47.47,0,0,1,.31,0l5.55,1.77a.51.51,0,0,1,.33.34.53.53,0,0,1-.07.47l-4.32,5.83A.49.49,0,0,1,173.7,22ZM162.88,17.5l10.62,3.4,3.66-5-4.7-1.5Z"/><path class="cls-26" d="M148.64,21.5l-11.26,3.6L139.5,28h13.92L151,24.74Z"/><path class="cls-18" d="M153.42,28.5H139.5a.51.51,0,0,1-.42-.21L137,25.4a.5.5,0,0,1-.08-.46.55.55,0,0,1,.34-.34L148.48,21a.52.52,0,0,1,.58.19l4.78,6.48a.53.53,0,0,1,0,.54A.52.52,0,0,1,153.42,28.5Zm-13.66-1h12.63l-3.94-5.35-10.22,3.26Z"/><path class="cls-26" d="M139.5,28c1.43,1.94,2.86,3.89,4.3,5.83h13.92c-1.44-1.94-2.87-3.89-4.3-5.83Z"/><path class="cls-18" d="M157.72,34.33H143.8a.49.49,0,0,1-.41-.21q-2.16-2.91-4.31-5.84a.52.52,0,0,1,.42-.82h13.92a.54.54,0,0,1,.42.21l4.3,5.84a.52.52,0,0,1,0,.54A.52.52,0,0,1,157.72,34.33Zm-13.65-1h12.62l-3.54-4.8H140.53Q142.28,30.91,144.07,33.3Z"/><path class="cls-23" d="M172.46,13.89l-11.25-3.6-11.29,3.6,11.26,3.61Z"/><path class="cls-18" d="M161.18,18a.41.41,0,0,1-.16,0l-11.26-3.6a.52.52,0,0,1,0-1l11.29-3.6a.58.58,0,0,1,.32,0l11.25,3.6a.52.52,0,0,1,0,1L161.33,18A.4.4,0,0,1,161.18,18Zm-9.56-4.12,9.56,3,9.58-3.06-9.55-3.05Z"/><path class="cls-26" d="M144.35,15.67l-11.26,3.6,4.29,5.83,11.26-3.6Z"/><path class="cls-18" d="M137.38,25.61a.51.51,0,0,1-.42-.21l-.65-.88-3.64-4.94a.49.49,0,0,1,0-.44,1.09,1.09,0,0,1,.44-.42l11.1-3.54a.5.5,0,0,1,.57.18l4.3,5.83a.52.52,0,0,1,.08.47.53.53,0,0,1-.34.33l-11.26,3.6A.47.47,0,0,1,137.38,25.61Zm-3.44-6.06,3.2,4.35.44.59,10.21-3.27-3.64-4.94Z"/><path class="cls-23" d="M161.18,17.5l-11.26-3.61-5.57,1.78,4.29,5.83Z"/><path class="cls-18" d="M148.64,22a.54.54,0,0,1-.42-.21L143.93,16a.51.51,0,0,1,.26-.8l5.57-1.78a.58.58,0,0,1,.32,0L161.33,17a.5.5,0,0,1,.37.49.52.52,0,0,1-.37.49l-3.76,1.21L148.8,22A.45.45,0,0,1,148.64,22ZM145.19,16l3.65,4.94,8.41-2.68,2.22-.71-9.55-3.06Z"/><path class="cls-18" d="M171.55,78.68a.47.47,0,0,1-.3-.1l-10.64-7.73a.51.51,0,0,1,0-.84L173,61a.49.49,0,0,1,.47-.07.52.52,0,0,1,.33.33l4.06,12.51a.5.5,0,0,1-.18.57l-5.78,4.21A.52.52,0,0,1,171.55,78.68Zm-9.76-8.25,9.76,7.09,5.17-3.76L173,62.29Z"/><path class="cls-18" d="M149.79,79a.5.5,0,0,1-.31-.1L144,75a.52.52,0,0,1-.19-.58l4.26-13.08a.5.5,0,0,1,.33-.33.48.48,0,0,1,.46.07l12.36,9a.53.53,0,0,1,0,.84l-11.13,8.08A.47.47,0,0,1,149.79,79Zm-4.87-4.7,4.87,3.54L160,70.43l-11.2-8.14Z"/><path class="cls-18" d="M173.27,62a.41.41,0,0,1-.16,0,.51.51,0,0,1-.34-.33l-4.71-14.53a.51.51,0,0,1,.07-.46.5.5,0,0,1,.42-.21H182.3a.52.52,0,0,1,.5.35l2.09,6.45a.51.51,0,0,1-.19.58l-11.13,8.08A.49.49,0,0,1,173.27,62Zm-4-14.53,4.28,13.17,10.25-7.44-1.86-5.73Z"/><path class="cls-18" d="M148.56,62a.5.5,0,0,1-.31-.1l-11.1-8.07a.52.52,0,0,1-.19-.58l2.1-6.46a.5.5,0,0,1,.49-.35h13.73a.51.51,0,0,1,.42.21.54.54,0,0,1,.07.46l-4.72,14.53a.5.5,0,0,1-.33.33A.45.45,0,0,1,148.56,62Zm-10.5-8.79,10.23,7.43,4.27-13.17H139.93Z"/><path class="cls-18" d="M144.31,75.05A.57.57,0,0,1,144,75l-11.1-8.07a.52.52,0,0,1-.19-.58L137,53.22a.5.5,0,0,1,.33-.33.5.5,0,0,1,.47.07L148.86,61a.52.52,0,0,1,.19.58L144.8,74.69a.52.52,0,0,1-.33.33Zm-10.5-8.79L144,73.69l3.92-12-10.22-7.43Z"/><path class="cls-18" d="M182.3,47.44H168.55a.51.51,0,0,1-.49-.36l-4.25-13a.5.5,0,0,1,.08-.46.5.5,0,0,1,.42-.22h13.75a.53.53,0,0,1,.5.36l4.24,13a.53.53,0,0,1-.08.47A.51.51,0,0,1,182.3,47.44Zm-13.37-1h12.66l-3.9-12H165Z"/><path class="cls-18" d="M153.28,47.44H139.55a.53.53,0,0,1-.42-.21.5.5,0,0,1-.07-.47l4.24-13a.53.53,0,0,1,.49-.36h13.73a.52.52,0,0,1,.42.22A.53.53,0,0,1,158,34l-4.24,13A.51.51,0,0,1,153.28,47.44Zm-13-1H152.9l3.91-12H144.17Z"/><path class="cls-18" d="M168.55,47.44H153.28a.51.51,0,0,1-.42-.21.53.53,0,0,1-.08-.47l4.25-13a.51.51,0,0,1,.49-.36h6.79a.53.53,0,0,1,.49.36l4.24,13a.51.51,0,0,1-.49.68Zm-14.56-1h13.85l-3.91-12h-6Z"/><path class="cls-18" d="M184.22,76.91l-.16,0-.59-.2-6.55-2.11a.54.54,0,0,1-.36-.41.51.51,0,0,1,.21-.5l11.6-8.41a.52.52,0,0,1,.47-.07c2.38.79,4.73,1.6,7.08,2.4a.51.51,0,0,1,.34.41.51.51,0,0,1-.21.5l-11.52,8.32A.56.56,0,0,1,184.22,76.91Zm-6-3,5.58,1.81.35.11,10.49-7.57q-2.91-1-5.87-2Z"/><path class="cls-27" d="M134.83,92c35.58-30.39,29-62.21,25.4-73"/><polygon class="cls-13" points="163.16 18.74 158.72 15.15 157.83 20.8 163.16 18.74"/><path class="cls-9" d="M278.75,66.13l-19-6.07,15.28-22L274.59,35h0l-18.47-2.8-1.7,2.66,2.29,24.24-14.79-4.72-1.6,2.5,1.37,25.51,1.87,1,13.59-19.57,2.64,28,1.74.9,17.73-22.79ZM243.36,80l-1.27-22.5,13.71,4.59Zm13-44.81,16.32,2.56L258.44,58.24Zm4.88,54.62-2.39-26.7L276.62,69Z"/><path class="cls-11" d="M294.12,54.19h0l-1-1.88-5.52,5.3L283.84,34l-1.18-2.33h0L274.59,35h0l.41,3.07,11.38,20.74-7.63,7.32.5,3.75,12.57,20,.76-1.37h0l-4.15-25.95,9.22,16.81.71-1.27h0ZM276,37.59l7.06-3.29,3.54,22.5Zm15.25,48.77L280.35,68.72l7-7.38Zm-2.8-26.21,5.1-5.39,3.48,20.94Z"/><polygon class="cls-11" points="241.68 82.38 228.38 75.48 240.31 56.87 241.68 82.38"/><polygon class="cls-11" points="256.7 59.09 241.91 54.37 254.41 34.84 256.7 59.09"/><polygon class="cls-7" points="274.58 34.99 256.11 32.19 271.08 8.82 274.58 34.99"/><polygon class="cls-11" points="259.78 91.77 243.55 83.35 257.14 63.78 259.78 91.77"/><polygon class="cls-7" points="283.84 104.25 261.52 92.67 279.25 69.88 283.84 104.25"/><polygon class="cls-28" points="297.65 79.35 297.65 79.35 292.58 88.48 288.43 62.54 297.65 79.35"/><polygon class="cls-28" points="291.82 89.86 291.82 89.87 283.84 104.25 279.25 69.88 291.82 89.86"/><path class="cls-28" d="M261.1,91.46l16.95-22.91-20.17-6.74.6,6.76-.69-7.28L243.27,82.21l-.3-.15L257.2,61.58l-15.54-5.19.63-1,15.41,4.93-2.38-25.27.14-.23,2.32,25.9,16.45-23.69-18.34-2.87.66-1,17.61,2.67.78.78L258.32,60.53,279,67.13l8-7.73.14.84-7.78,8.21-.07-.1-18,23.2Zm-18.56-9.63-.87-16.08.91,16.1Zm45.27-23.17,5.1-4.9.14.27-5.12,5.4ZM275.47,35.58l6.77-2.83.4.79-7.17,3.33Z"/><path d="M282.66,31.62,274.59,35h0l-18.47-2.8-1.7,2.66,2.29,24.24-14.79-4.72-1.6,2.5,1.37,25.51,1.87,1,13.59-19.57,2.64,28,1.74.9,17.73-22.79,12.57,20,.76-1.37h0l-4.15-25.95,9.22,16.81.71-1.27h0l-4.24-23.88h0l-1-1.88-5.52,5.3L283.84,34l-1.18-2.33Zm4,25.18L276,37.59l7.06-3.29,3.54,22.5Zm-28.18,1.44-2.06-23.09,16.32,2.56L258.44,58.24Zm20.31,7.89-19-6.07,15.28-22,11.38,20.74-7.63,7.32Zm18.3,9.57-8.58-15.55,5.1-5.39,3.48,20.94ZM243.36,80l-1.27-22.5,13.71,4.59L243.36,80Zm47.91,6.4L280.35,68.72l7-7.38,3.93,25Zm-30,3.41-2.39-26.7L276.62,69,261.26,89.77Z"/><polygon class="cls-28" points="297.05 75.7 288.47 60.15 293.57 54.76 297.05 75.7"/><polygon class="cls-28" points="291.27 86.36 280.35 68.72 287.34 61.34 291.27 86.36"/><polygon class="cls-28" points="286.62 56.8 276.02 37.59 283.08 34.3 286.62 56.8"/><polygon class="cls-28" points="286.38 58.81 278.75 66.13 275 38.07 286.38 58.81"/><polygon class="cls-7" points="276.62 69 261.26 89.77 258.88 63.07 276.62 69"/><polygon class="cls-11" points="255.8 62.05 243.36 79.96 242.09 57.46 255.8 62.05"/><polygon class="cls-7" points="278.75 66.13 259.72 60.05 275 38.07 278.75 66.13"/><polygon class="cls-7" points="272.7 37.71 258.44 58.24 256.38 35.15 272.7 37.71"/><polygon class="cls-28" points="302.48 70.65 298.36 78.07 294.12 54.19 302.48 70.65"/><polygon class="cls-28" points="293.16 52.3 287.63 57.6 283.84 33.95 293.16 52.3"/><polygon class="cls-28" points="282.66 31.62 274.59 34.99 274.58 34.99 271.08 8.82 282.66 31.62"/><line class="cls-29" x1="271.09" y1="8.82" x2="283.84" y2="104.25"/><line class="cls-29" x1="228.38" y1="75.48" x2="283.84" y2="104.25"/><line class="cls-29" x1="271.09" y1="8.82" x2="228.38" y2="75.48"/><line class="cls-29" x1="283.84" y1="104.25" x2="302.48" y2="70.65"/><line class="cls-29" x1="271.09" y1="8.82" x2="302.48" y2="70.65"/><path class="cls-30" d="M266.19,30.3c-15.65,40.22,10.94,61.28,10.94,61.28"/><polygon class="cls-13" points="262.5 29.91 268.21 25.52 269.16 32.66 262.5 29.91"/><polygon class="cls-10" points="16.7 135.94 49.23 115.88 98.75 126.77 71.71 150.88 16.7 135.94"/><path d="M49.27,116.11l49,10.78L71.66,150.64,17.25,135.86l32-19.75m-.08-.47L16.15,136l55.62,15.11,27.45-24.48-50-11Z"/><polygon class="cls-10" points="20.58 187.04 16.4 136.31 71.55 151.29 70.19 205.13 20.58 187.04"/><path d="M16.65,136.61l54.67,14.85L70,204.82,20.79,186.88l-4.14-50.27m-.5-.59,4.22,51.18,50,18.25,1.36-54.32L16.15,136Z"/><polygon class="cls-31" points="99.22 126.65 71.77 151.13 70.41 205.45 95.51 175.69 99.22 126.65"/><line class="cls-32" x1="74.21" y1="121.14" x2="74.19" y2="121.14"/><line class="cls-32" x1="74.21" y1="121.15" x2="74.21" y2="121.14"/><polygon class="cls-31" points="43.96 143.57 16.16 136.01 32.67 125.83 43.96 143.57"/><polygon class="cls-31" points="85.5 138.89 85.49 138.89 43.98 143.58 43.96 143.58 43.96 143.57 32.67 125.83 32.68 125.83 74.19 121.14 74.21 121.15 85.5 138.89"/><polygon class="cls-31" points="74.19 121.14 32.68 125.83 49.19 115.64 74.19 121.14"/><polygon class="cls-33" points="99.22 126.65 85.5 138.89 74.21 121.15 99.22 126.65"/><polygon class="cls-31" points="85.49 138.89 71.78 151.13 43.98 143.58 85.49 138.89"/><polygon class="cls-33" points="71.09 178.29 45.38 196.32 18.26 161.61 43.96 143.58 71.09 178.29"/><polygon class="cls-33" points="43.96 143.57 43.96 143.58 18.26 161.61 16.16 136.01 43.96 143.57"/><polygon class="cls-33" points="45.38 196.32 20.37 187.2 18.26 161.61 45.38 196.32"/><polygon class="cls-34" points="85.5 138.89 71.09 178.29 71.78 151.13 85.49 138.89 85.5 138.89"/><polygon class="cls-33" points="71.78 151.13 71.09 178.29 43.96 143.58 43.98 143.58 71.78 151.13"/><polygon class="cls-35" points="97.36 151.17 95.5 175.7 82.96 190.56 97.36 151.17"/><polygon class="cls-35" points="82.96 190.56 82.96 190.57 70.41 205.45 71.09 178.29 82.96 190.56"/><polygon class="cls-35" points="97.36 151.17 82.96 190.56 71.09 178.29 85.5 138.89 97.36 151.17"/><polygon class="cls-35" points="99.22 126.65 97.36 151.17 85.5 138.89 99.22 126.65"/><polygon class="cls-36" points="71.09 178.29 70.41 205.45 45.38 196.32 71.09 178.29"/><path d="M70.37,206.1l-.18,0-50-18.25a.54.54,0,0,1-.22-.13,1.3,1.3,0,0,1-.15-.2l.19-.14-.22,0a.53.53,0,0,1,0-.12L15.5,136.07l.23,0-.22-.05a.45.45,0,0,1,0-.11l.06-.13.05-.1a.32.32,0,0,1,.1-.09l0,0,.07,0,33-20.37.09,0a.38.38,0,0,1,.14,0h.16l50.12,11,0,.25.1-.2a.8.8,0,0,1,.14.11l.1.12h0s0,0,0,.06l.06.14a.37.37,0,0,1,0,.11l-3.7,49.15a.42.42,0,0,1,0,.17v0l-.06.11L70.9,205.88l-.09.07-.08.06a.71.71,0,0,1-.32.09Zm-.59-1.58.63-25L46.79,196.14Zm1.33-.91,11-13L71.7,179.86Zm-25.59-8.18,24.63-17.28L43.83,144.46,19.2,161.75Zm-2.05-.5-24.38-31.2,1.9,23Zm39.23-5.56,13.91-38L85.75,140.09l-13.91,38Zm2.14-2,10-11.89,1.49-19.62ZM70.48,176.45l.63-24.83-25.43-6.9Zm1.36-2.12L84,141.1,72.42,151.43Zm-53-13.91,23.63-16.58-25.57-7Zm52.78-10,11.93-10.64-36.1,4.07Zm25.22-.74,1.63-21.46-12,10.71Zm-52.53-6.79,40.09-4.52L73.87,121.84l-40.09,4.52Zm-1.78-.38-10-15.78-14.69,9.06Zm43.12-4.61L97.83,127,75.6,122.12Zm-50.14-13,34.74-3.92-20.92-4.61Z"/><path d="M49.16,115.21h.12l50,11,0,0,.06,0,0,0,.07,0,0,0h0s0,0,0,0a.25.25,0,0,1,0,.07.13.13,0,0,1,0,.08.19.19,0,0,1,0,.08.11.11,0,0,1,0,0h0l-3.71,49s0,0,0,.05,0,.05,0,.07a.56.56,0,0,1,0,.08l0,0-25.1,29.75,0,0,0,0,0,0h0a.05.05,0,0,0,0,0,.47.47,0,0,1-.17,0h0l-.1,0h0l-50-18.24h0a.47.47,0,0,1-.14-.08l0,0a.39.39,0,0,1-.08-.1s0,0,0-.07a.24.24,0,0,1,0-.08l-4.22-51.19s0,0,0-.06a.22.22,0,0,1,0-.08h0a.16.16,0,0,1,0-.07l0-.07h0l.06-.06,0,0,33-20.38h0a.25.25,0,0,1,.11,0h0m-14.62,10,37-4.17-22.3-4.91-14.73,9.08m9.64,17.93,40.58-4.57L74,121.6l-40.58,4.58,10.77,16.93m41.41-4.88L98.3,126.89l-23.17-5.1,10.46,16.44M43,142.86,32.54,126.42l-15.31,9.44,25.77,7m54,7.32,1.7-22.5L86.12,138.91,97,150.18M18.63,160.82,43,143.75,16.64,136.6l2,24.22m53-10.17L84.2,139.47l-37.94,4.28,25.4,6.9m11.13,39.12,14.08-38.49-11.2-11.6-14.08,38.5,11.2,11.59m-11.2-14.1L84.5,140.35l-12.3,11-.61,24.34M45.48,195.73l25-17.53-26.59-34-25,17.54,26.6,34m25.21-18.66.64-25.61L45.1,144.33l25.59,32.74M84.2,188.43l10.89-12.91,1.61-21.27L84.2,188.43m-40.08,7L18.81,163l2,23.88,23.34,8.51M70,204.84l.65-25.71L46.31,196.2,70,204.84m.88-.61,11.51-13.64L71.5,179.33l-.63,24.9M49.16,114.77H49a.88.88,0,0,0-.2.07h0a.34.34,0,0,0-.11.05l-33,20.37,0,0-.07.07a.22.22,0,0,0-.1.09l-.1.15,0,.08,0,0,0,.07v.09a.25.25,0,0,0,0,.08v.13l4.21,51.18a.85.85,0,0,0,0,.17v.05l0,.09a1,1,0,0,0,.13.19l0,0,.05.05A.8.8,0,0,0,20,188h0l.07,0,50,18.25.17,0h.11a.87.87,0,0,0,.37-.08l0,0,.07,0h0l0,0,0,0,0,0,0-.06,25.11-29.75,0,0,0-.05a1.09,1.09,0,0,0,.08-.15.83.83,0,0,0,0-.15h0a.33.33,0,0,0,0-.11l3.71-49v-.15a.83.83,0,0,0,0-.13.76.76,0,0,0-.06-.16.75.75,0,0,0-.07-.12v0l0,0h0l0,0h0l-.1-.09-.11-.07,0,0,0,0-.1,0-.1,0-50-11h-.22Zm-12.71,9.76,12.9-8,19.53,4.3-32.43,3.66Zm-2.29,2,39.6-4.47L84,138.18l-39.6,4.46-10.25-16.1Zm51.52,11-9.61-15.1,21.3,4.68L85.68,137.55ZM18.33,135.7,32.4,127,42,142.14,18.33,135.7Zm68.42,3.23,11.44-10.19-1.55,20.43-9.89-10.24ZM19,160l-1.88-22.83,24.81,6.74L19,160ZM48.6,143.93l34.27-3.87-11.33,10.1L48.6,143.93Zm23.5,34.14L85.84,140.5l10.52,10.88L82.62,189,72.1,178.07Zm.53-26.54,10.85-9.68L72.1,173l.53-21.47ZM19.52,161.8l24.27-17L69.84,178.1l-24.27,17-26-33.33Zm50.76,14-24-30.73,24.61,6.69-.6,24Zm15.19,10.41L96,157.39l-1.36,18-9.19,10.89Zm-64.28.33-1.82-22.13,23.46,30-21.64-7.89Zm26.07,9.51L70.17,180l-.6,24.21-22.31-8.13ZM71.34,203l.57-22.6,9.87,10.22L71.34,203Z"/><path class="cls-37" d="M93.17,143.29C89,176.66,74.8,184.72,74.8,184.72"/><polygon class="cls-13" points="89.75 143.87 93.68 138.57 96.3 144.63 89.75 143.87"/><g id="layer3"><g id="L1"><polygon class="cls-38" points="182.21 155.15 141.6 177.93 122.19 171.36 153.79 147.49 182.21 155.15"/><polygon class="cls-39" points="141.6 177.93 142.41 195.77 123.63 188.92 122.19 171.36 141.6 177.93"/></g><g id="R2"><polygon class="cls-40" points="205.02 166.04 204.5 181.91 187.09 190.53 187.36 173.72 205.02 166.04"/><polygon class="cls-40" points="173.51 179.74 173.44 197.28 153.4 207 153.59 188.4 173.51 179.74"/><polygon class="cls-40" points="187.36 173.72 187.09 190.53 173.44 197.28 173.51 179.74 187.36 173.72"/><polygon class="cls-41" points="153.4 207 142.41 195.77 141.6 177.93 153.59 188.4 153.4 207"/><polygon id="B" class="cls-38" points="182.6 152.05 182.5 152.28 141.6 177.93 153.59 188.4 205.02 166.04 182.6 152.05"/></g></g><g id="layer2"><g id="L1-2"><polygon class="cls-39" points="140.8 160.09 130.1 156.88 120.76 154.07 122.2 171.5 141.6 177.93 140.8 160.09"/><polygon class="cls-38" points="179.94 138.46 140.8 160.09 140.79 160.14 120.79 154.17 153.43 132.05 179.94 138.46"/></g><g id="R2-2"><polygon class="cls-40" points="153.45 169.94 153.59 188.4 205.02 166.14 205.52 150.44 153.45 169.94"/><polygon class="cls-41" points="153.59 188.4 141.6 177.93 140.8 160.09 153.45 169.94 153.59 188.4"/><polygon id="B-2" class="cls-38" points="182.53 136.1 182.43 136.31 140.8 160.09 153.45 169.94 205.52 150.35 182.53 136.1"/></g></g><g id="layer1"><g id="L1-3"><g id="B-3"><polygon class="cls-42" points="163.14 131.66 183.33 122.45 169.64 119.44 163.14 131.66 163.14 131.66"/><polygon class="cls-42" points="163.14 131.66 169.64 119.44 153.05 115.79 140.79 123.35 163.14 131.66 163.14 131.66"/><polygon class="cls-42" points="140.79 123.35 131.79 128.9 163.14 131.66 140.79 123.35"/><polygon class="cls-42" points="163.14 131.66 131.79 128.9 119.31 136.6 139.98 142.22 163.14 131.66 163.14 131.66"/></g><polygon class="cls-39" points="140.8 160.09 140 142.26 119.31 136.6 120.76 154.07 140.8 160.09"/></g><g id="R2-3"><g id="B-4"><polygon class="cls-43" points="206.02 134.83 187.89 140.64 187.89 140.64 163.14 131.66 192.28 127.19 206.02 134.83"/><polygon class="cls-43" points="187.89 140.64 173.65 145.2 163.14 131.66 187.89 140.64"/><polygon class="cls-43" points="173.65 145.2 153.14 151.77 140.19 142.13 163.14 131.66 163.14 131.66 173.65 145.2"/><polygon class="cls-43" points="192.28 127.19 163.14 131.66 183.33 122.45 192.28 127.19"/></g><polygon class="cls-41" points="153.45 169.94 140.8 160.09 140.19 142.13 153.14 151.77 153.45 169.94"/><polygon class="cls-40" points="206.02 134.83 205.52 150.34 187.63 157.08 187.89 140.64 206.02 134.83"/><polygon class="cls-40" points="173.65 145.2 173.59 162.37 153.45 169.94 153.14 151.77 173.65 145.2"/><polygon class="cls-40" points="187.89 140.64 187.63 157.08 173.59 162.37 173.65 145.2 187.89 140.64"/></g></g><path class="cls-44" d="M162.52,144q-33.44,25.88-1.54,52.35"/><path class="cls-13" d="M160.32,143.08l2.21,3.6,2.18-4.34Z"/></svg>