<svg id="图层_1" data-name="图层 1" xmlns="http://www.w3.org/2000/svg" viewBox="0 0 300 150"><defs><style>.cls-1{stroke:#000;stroke-linejoin:round;stroke-width:7.11px;}.cls-2{fill:#404040;}.cls-3{fill:#00d800;}.cls-4{fill:#fefe00;}.cls-5{fill:#e00;}</style></defs><polygon class="cls-1" points="81.01 65.73 112.8 37.37 108.5 94.19 79.43 128.65 81.01 65.73"/><polygon class="cls-1" points="54.85 24.62 112.8 37.37 81.01 65.73 16.58 48.22 54.85 24.62"/><polygon class="cls-1" points="16.58 48.22 81.01 65.73 79.43 128.65 21.46 107.51 16.58 48.22"/><polygon class="cls-2" points="82.81 66.15 93.48 56.63 92.61 76.29 82.3 86.58 82.81 66.15"/><polygon class="cls-2" points="95.24 54.98 104.77 46.48 103.61 65.42 94.36 74.64 95.24 54.98"/><polygon class="cls-2" points="106.34 45 114.9 37.37 113.52 55.62 105.18 63.93 106.34 45"/><polygon class="cls-2" points="82.18 90 92.49 79.71 91.68 97.98 81.71 108.91 82.18 90"/><polygon class="cls-3" points="94.19 77.93 103.44 68.71 102.36 86.38 93.38 96.21 94.19 77.93"/><polygon class="cls-3" points="104.97 67.11 113.3 58.8 112.01 75.89 103.89 84.78 104.97 67.11"/><polygon class="cls-2" points="81.6 112.08 91.57 101.16 90.81 118.19 81.16 129.64 81.6 112.08"/><polygon class="cls-3" points="93.22 99.28 102.19 89.45 101.19 105.98 92.46 116.31 93.22 99.28"/><polygon class="cls-3" points="103.69 87.76 111.8 78.86 110.59 94.9 102.67 104.28 103.69 87.76"/><polygon class="cls-2" points="54.7 22.45 71.2 26.07 61.33 32.86 44.3 28.86 54.7 22.45"/><polygon class="cls-4" points="74.25 26.77 91.69 30.6 82.43 37.79 64.38 33.55 74.25 26.77"/><polygon class="cls-2" points="94.92 31.34 113.39 35.4 104.83 43.03 85.66 38.53 94.92 31.34"/><polygon class="cls-4" points="42.42 30.09 59.45 34.09 48.52 41.6 30.94 37.17 42.42 30.09"/><polygon class="cls-4" points="62.6 34.86 80.65 39.1 70.38 47.08 51.68 42.37 62.6 34.86"/><polygon class="cls-4" points="84 39.91 103.17 44.42 93.65 52.91 73.73 47.89 84 39.91"/><polygon class="cls-5" points="28.86 38.53 46.44 42.96 34.29 51.31 16.13 46.38 28.86 38.53"/><polygon class="cls-5" points="49.7 43.81 68.4 48.52 56.93 57.43 37.55 52.17 49.7 43.81"/><polygon class="cls-2" points="71.88 49.44 91.8 54.46 81.13 63.98 60.41 58.34 71.88 49.44"/><polygon class="cls-3" points="15.09 48.8 33.25 53.73 34.22 73.27 16.67 67.92 15.09 48.8"/><polygon class="cls-3" points="36.5 54.67 55.88 59.93 56.16 79.91 37.47 74.21 36.5 54.67"/><polygon class="cls-2" points="59.35 60.93 80.07 66.56 79.56 86.99 59.63 80.91 59.35 60.93"/><polygon class="cls-5" points="16.89 71.21 34.44 76.56 35.34 94.74 18.36 89.04 16.89 71.21"/><polygon class="cls-5" points="37.58 77.57 56.27 83.27 56.52 101.81 38.48 95.75 37.58 77.57"/><polygon class="cls-4" points="59.61 84.34 79.54 90.42 79.07 109.33 59.87 102.88 59.61 84.34"/><polygon class="cls-5" points="18.56 92.11 35.54 97.81 36.38 114.77 19.93 108.77 18.56 92.11"/><polygon class="cls-5" points="38.58 98.88 56.62 104.94 56.86 122.19 39.42 115.83 38.58 98.88"/><polygon class="cls-2" points="59.85 106.07 79.05 112.52 78.61 130.08 60.09 123.32 59.85 106.07"/><polygon class="cls-1" points="248.91 65.35 280.7 36.99 276.4 93.81 247.33 128.27 248.91 65.35"/><polygon class="cls-1" points="222.75 24.24 280.7 36.99 248.91 65.35 184.48 47.84 222.75 24.24"/><polygon class="cls-1" points="184.48 47.84 248.91 65.35 247.33 128.27 189.36 107.13 184.48 47.84"/><polygon class="cls-2" points="250.71 65.77 261.38 56.26 260.51 75.91 250.2 86.2 250.71 65.77"/><polygon class="cls-2" points="263.14 54.6 272.66 46.11 271.51 65.04 262.26 74.26 263.14 54.6"/><polygon class="cls-2" points="274.24 44.62 282.8 36.99 281.41 55.24 273.08 63.56 274.24 44.62"/><polygon class="cls-3" points="250.08 89.62 260.39 79.33 259.58 97.61 249.6 108.53 250.08 89.62"/><polygon class="cls-3" points="262.09 77.55 271.33 68.33 270.25 86 261.28 95.83 262.09 77.55"/><polygon class="cls-3" points="272.87 66.73 281.2 58.42 279.9 75.51 271.79 84.4 272.87 66.73"/><polygon class="cls-3" points="249.5 111.7 259.47 100.78 258.71 117.81 249.06 129.26 249.5 111.7"/><polygon class="cls-3" points="261.12 98.9 270.09 89.07 269.08 105.6 260.36 115.94 261.12 98.9"/><polygon class="cls-3" points="271.58 87.38 279.7 78.49 278.49 94.52 270.57 103.91 271.58 87.38"/><polygon class="cls-4" points="222.6 22.07 239.1 25.7 229.23 32.48 212.2 28.48 222.6 22.07"/><polygon class="cls-4" points="242.15 26.39 259.59 30.23 250.33 37.42 232.28 33.18 242.15 26.39"/><polygon class="cls-4" points="262.82 30.96 281.29 35.02 272.73 42.65 253.56 38.15 262.82 30.96"/><polygon class="cls-4" points="210.32 29.71 227.35 33.71 216.42 41.22 198.84 36.79 210.32 29.71"/><polygon class="cls-4" points="230.5 34.48 248.55 38.72 238.28 46.7 219.58 41.99 230.5 34.48"/><polygon class="cls-4" points="251.9 39.54 271.07 44.04 261.55 52.53 241.63 47.52 251.9 39.54"/><polygon class="cls-4" points="196.76 38.15 214.34 42.58 202.19 50.93 184.03 46 196.76 38.15"/><polygon class="cls-4" points="217.6 43.44 236.3 48.15 224.83 57.05 205.45 51.79 217.6 43.44"/><polygon class="cls-4" points="239.78 49.06 259.7 54.08 249.03 63.6 228.31 57.97 239.78 49.06"/><polygon class="cls-2" points="182.99 48.42 201.15 53.35 202.12 72.89 184.57 67.54 182.99 48.42"/><polygon class="cls-2" points="204.4 54.29 223.78 59.55 224.06 79.53 205.37 73.83 204.4 54.29"/><polygon class="cls-2" points="227.25 60.55 247.97 66.19 247.46 86.61 227.53 80.53 227.25 60.55"/><polygon class="cls-5" points="184.79 70.83 202.34 76.19 203.24 94.37 186.25 88.66 184.79 70.83"/><polygon class="cls-5" points="205.48 77.19 224.16 82.89 224.42 101.43 206.38 95.37 205.48 77.19"/><polygon class="cls-5" points="227.51 83.96 247.44 90.04 246.97 108.96 227.76 102.51 227.51 83.96"/><polygon class="cls-5" points="186.46 91.73 203.44 97.44 204.28 114.39 187.83 108.39 186.46 91.73"/><polygon class="cls-5" points="206.48 98.5 224.52 104.56 224.76 121.81 207.32 115.45 206.48 98.5"/><polygon class="cls-5" points="227.75 105.69 246.95 112.14 246.51 129.7 227.99 122.94 227.75 105.69"/><path d="M151.23,98.24l23.17-17.9a1.09,1.09,0,0,0,.4-.83,1.06,1.06,0,0,0-.4-.84l-23.17-17.9a1.06,1.06,0,0,0-1.7.83v9.48H125.31a1.05,1.05,0,0,0-1,1.06V86.88a1,1,0,0,0,1,1.05h24.22v9.48a1.06,1.06,0,0,0,1.7.83Z"/></svg>