<svg id="图层_1" data-name="图层 1" xmlns="http://www.w3.org/2000/svg" viewBox="0 0 20.16 24">
  <title>leetcode</title>
  <path d="M16.1,17.93l-2.7,2.61a2.51,2.51,0,0,1-1.82.66,2.51,2.51,0,0,1-1.82-.66L5.43,16.17a2.6,2.6,0,0,1-.71-1.86,2.5,2.5,0,0,1,.71-1.82L9.74,8.11a2.52,2.52,0,0,1,1.84-.65,2.51,2.51,0,0,1,1.82.66l2.7,2.61A1.37,1.37,0,0,0,18,8.79L15.43,6.15A5.1,5.1,0,0,0,13,4.82l2.46-2.51a1.34,1.34,0,0,0,0-1.9,1.36,1.36,0,0,0-1.91,0L3.41,10.48a5.31,5.31,0,0,0-1.49,3.83,5.43,5.43,0,0,0,1.49,3.88l4.35,4.36A5.31,5.31,0,0,0,11.6,24a5.33,5.33,0,0,0,3.83-1.49L18,19.87a1.37,1.37,0,0,0-1.94-1.94ZM20.81,13H10.67a1.35,1.35,0,0,0,0,2.69H20.81a1.35,1.35,0,0,0,0-2.69Z" transform="translate(-1.92 0)" style="fill: #fff"/>
</svg>
