<svg id="图层_1" data-name="图层 1" xmlns="http://www.w3.org/2000/svg" viewBox="0 0 24 19.49">
  <title>sinaweibo</title>
  <path d="M10.1,20.32c-4,.39-7.42-1.4-7.67-4s2.75-5,6.74-5.44,7.41,1.41,7.67,4-2.76,5-6.74,5.44Zm-1-3.1a1.52,1.52,0,0,1-1.83.6,1.05,1.05,0,0,1-.4-1.59,1.5,1.5,0,0,1,1.79-.6A1.05,1.05,0,0,1,9.05,17.22Zm1.27-1.63a.59.59,0,0,1-.69.26.4.4,0,0,1-.18-.59.56.56,0,0,1,.68-.24.41.41,0,0,1,.18.6Zm.18-2.72A4.34,4.34,0,0,0,5.64,15,3,3,0,0,0,7.52,19.2,4.31,4.31,0,0,0,12.66,17,3,3,0,0,0,10.5,12.87Zm7.56-1.22c-.35-.11-.57-.18-.41-.62a2.52,2.52,0,0,0,0-2.4c-.78-1.11-2.91-1.05-5.36,0,0,0-.77.33-.57-.27a2.78,2.78,0,0,0-.27-2.81c-1.34-1.34-4.87.05-7.89,3.08C1.31,10.87,0,13.27,0,15.35c0,4,5.1,6.39,10.09,6.39,6.53,0,10.88-3.8,10.88-6.82,0-1.82-1.54-2.85-2.91-3.28ZM20,6.56a3.08,3.08,0,0,0-3-1,.78.78,0,1,0,.31,1.53,1.49,1.49,0,0,1,1.44.46,1.53,1.53,0,0,1,.32,1.48.79.79,0,0,0,.51,1,.81.81,0,0,0,1-.51,3.13,3.13,0,0,0-.64-3Zm2.41-2.2a6.37,6.37,0,0,0-6.05-2,.91.91,0,1,0,.38,1.79A4.48,4.48,0,0,1,21,5.57,4.53,4.53,0,0,1,22,10a.92.92,0,1,0,1.74.57,6.36,6.36,0,0,0-1.34-6.23Z" transform="translate(0 -2.26)" style="fill: #fff"/>
</svg>
