<svg id="图层_1" data-name="图层 1" xmlns="http://www.w3.org/2000/svg" viewBox="0 0 20.18 24">
  <title>tencentqq</title>
  <path d="M21.4,15c-.25-.76-.52-1.51-.81-2.26l-1.08-2.69s0-.57,0-.84C19.53,4.63,17.35,0,12,0S4.47,4.63,4.47,9.24c0,.28,0,.81,0,.84L3.41,12.77c-.29.75-.56,1.5-.8,2.27-1,3.28-.69,4.64-.44,4.67.54.06,2.1-2.47,2.1-2.47A6.58,6.58,0,0,0,6.66,22a6.85,6.85,0,0,0-1.84.83c-.43.32-.38.65-.3.78.34.58,5.88.37,7.48.19,1.6.18,7.14.39,7.48-.19.08-.13.14-.46-.3-.78A6.85,6.85,0,0,0,17.34,22a6.6,6.6,0,0,0,2.39-4.77s1.56,2.53,2.1,2.47C22.08,19.68,22.41,18.32,21.4,15ZM12.66,4.85c0-1.06.66-1.88,1.39-1.85s1.28.91,1.24,2-.66,1.88-1.39,1.85S12.62,5.9,12.66,4.85ZM10,3c.73,0,1.35.79,1.39,1.85s-.52,1.93-1.24,2S8.75,6,8.71,5,9.23,3,10,3ZM7.42,8.29c.19-.43,2.15-.9,4.57-.9h0c2.42,0,4.38.47,4.57.9a.13.13,0,0,1,0,.06.24.24,0,0,1,0,.09A8.48,8.48,0,0,1,12,9.85h0A8.48,8.48,0,0,1,7.43,8.44.16.16,0,0,1,7.42,8.29Zm10.42,8.63c-.22,3.67-2.4,6-5.77,6h-.14c-3.37,0-5.55-2.35-5.77-6a15.76,15.76,0,0,1,.15-3.43l1,.17v3.51a11.38,11.38,0,0,0,3.32.1V14.05c.49,0,1,0,1.41,0h0a28.88,28.88,0,0,0,5.69-.59A16.49,16.49,0,0,1,17.84,16.92ZM10.48,5.8A.73.73,0,0,0,11,5c0-.42-.32-.72-.63-.68a.73.73,0,0,0-.51.82C9.89,5.54,10.17,5.84,10.48,5.8Zm4-.64A.21.21,0,0,0,14.77,5a.25.25,0,0,0,0-.21s-.13-.12-.37-.18a1.24,1.24,0,0,0-1.41.5.19.19,0,0,0,.06.23.13.13,0,0,0,.18,0A1,1,0,0,1,14.48,5.16Z" transform="translate(-1.91)" style="fill: #fff"/>
</svg>
